G04 #@! TF.GenerationSoftware,KiCad,Pcbnew,(6.0.4)*
G04 #@! TF.CreationDate,2022-04-25T12:44:50+02:00*
G04 #@! TF.ProjectId,switchpcb,73776974-6368-4706-9362-2e6b69636164,rev?*
G04 #@! TF.SameCoordinates,Original*
G04 #@! TF.FileFunction,Legend,Bot*
G04 #@! TF.FilePolarity,Positive*
%FSLAX46Y46*%
G04 Gerber Fmt 4.6, Leading zero omitted, Abs format (unit mm)*
G04 Created by KiCad (PCBNEW (6.0.4)) date 2022-04-25 12:44:50*
%MOMM*%
%LPD*%
G01*
G04 APERTURE LIST*
G04 Aperture macros list*
%AMRoundRect*
0 Rectangle with rounded corners*
0 $1 Rounding radius*
0 $2 $3 $4 $5 $6 $7 $8 $9 X,Y pos of 4 corners*
0 Add a 4 corners polygon primitive as box body*
4,1,4,$2,$3,$4,$5,$6,$7,$8,$9,$2,$3,0*
0 Add four circle primitives for the rounded corners*
1,1,$1+$1,$2,$3*
1,1,$1+$1,$4,$5*
1,1,$1+$1,$6,$7*
1,1,$1+$1,$8,$9*
0 Add four rect primitives between the rounded corners*
20,1,$1+$1,$2,$3,$4,$5,0*
20,1,$1+$1,$4,$5,$6,$7,0*
20,1,$1+$1,$6,$7,$8,$9,0*
20,1,$1+$1,$8,$9,$2,$3,0*%
G04 Aperture macros list end*
%ADD10C,0.150000*%
%ADD11C,0.120000*%
%ADD12R,1.800000X1.800000*%
%ADD13C,1.800000*%
%ADD14RoundRect,0.250000X-0.750000X0.600000X-0.750000X-0.600000X0.750000X-0.600000X0.750000X0.600000X0*%
%ADD15O,2.000000X1.700000*%
%ADD16R,0.800000X0.900000*%
%ADD17RoundRect,0.250000X-0.625000X0.400000X-0.625000X-0.400000X0.625000X-0.400000X0.625000X0.400000X0*%
%ADD18RoundRect,0.250000X-0.725000X0.600000X-0.725000X-0.600000X0.725000X-0.600000X0.725000X0.600000X0*%
%ADD19O,1.950000X1.700000*%
%ADD20RoundRect,0.250000X-0.400000X-0.625000X0.400000X-0.625000X0.400000X0.625000X-0.400000X0.625000X0*%
%ADD21C,18.000000*%
G04 APERTURE END LIST*
D10*
X72412380Y-105741904D02*
X71412380Y-105741904D01*
X71412380Y-105980000D01*
X71460000Y-106122857D01*
X71555238Y-106218095D01*
X71650476Y-106265714D01*
X71840952Y-106313333D01*
X71983809Y-106313333D01*
X72174285Y-106265714D01*
X72269523Y-106218095D01*
X72364761Y-106122857D01*
X72412380Y-105980000D01*
X72412380Y-105741904D01*
X72412380Y-107265714D02*
X72412380Y-106694285D01*
X72412380Y-106980000D02*
X71412380Y-106980000D01*
X71555238Y-106884761D01*
X71650476Y-106789523D01*
X71698095Y-106694285D01*
X72412380Y-121741904D02*
X71412380Y-121741904D01*
X71412380Y-121980000D01*
X71460000Y-122122857D01*
X71555238Y-122218095D01*
X71650476Y-122265714D01*
X71840952Y-122313333D01*
X71983809Y-122313333D01*
X72174285Y-122265714D01*
X72269523Y-122218095D01*
X72364761Y-122122857D01*
X72412380Y-121980000D01*
X72412380Y-121741904D01*
X71507619Y-122694285D02*
X71460000Y-122741904D01*
X71412380Y-122837142D01*
X71412380Y-123075238D01*
X71460000Y-123170476D01*
X71507619Y-123218095D01*
X71602857Y-123265714D01*
X71698095Y-123265714D01*
X71840952Y-123218095D01*
X72412380Y-122646666D01*
X72412380Y-123265714D01*
X25402380Y-123666666D02*
X26116666Y-123666666D01*
X26259523Y-123619047D01*
X26354761Y-123523809D01*
X26402380Y-123380952D01*
X26402380Y-123285714D01*
X25497619Y-124095238D02*
X25450000Y-124142857D01*
X25402380Y-124238095D01*
X25402380Y-124476190D01*
X25450000Y-124571428D01*
X25497619Y-124619047D01*
X25592857Y-124666666D01*
X25688095Y-124666666D01*
X25830952Y-124619047D01*
X26402380Y-124047619D01*
X26402380Y-124666666D01*
X35047619Y-111904761D02*
X35000000Y-111809523D01*
X34904761Y-111714285D01*
X34761904Y-111571428D01*
X34714285Y-111476190D01*
X34714285Y-111380952D01*
X34952380Y-111428571D02*
X34904761Y-111333333D01*
X34809523Y-111238095D01*
X34619047Y-111190476D01*
X34285714Y-111190476D01*
X34095238Y-111238095D01*
X34000000Y-111333333D01*
X33952380Y-111428571D01*
X33952380Y-111619047D01*
X34000000Y-111714285D01*
X34095238Y-111809523D01*
X34285714Y-111857142D01*
X34619047Y-111857142D01*
X34809523Y-111809523D01*
X34904761Y-111714285D01*
X34952380Y-111619047D01*
X34952380Y-111428571D01*
X34952380Y-112809523D02*
X34952380Y-112238095D01*
X34952380Y-112523809D02*
X33952380Y-112523809D01*
X34095238Y-112428571D01*
X34190476Y-112333333D01*
X34238095Y-112238095D01*
X35047619Y-121904761D02*
X35000000Y-121809523D01*
X34904761Y-121714285D01*
X34761904Y-121571428D01*
X34714285Y-121476190D01*
X34714285Y-121380952D01*
X34952380Y-121428571D02*
X34904761Y-121333333D01*
X34809523Y-121238095D01*
X34619047Y-121190476D01*
X34285714Y-121190476D01*
X34095238Y-121238095D01*
X34000000Y-121333333D01*
X33952380Y-121428571D01*
X33952380Y-121619047D01*
X34000000Y-121714285D01*
X34095238Y-121809523D01*
X34285714Y-121857142D01*
X34619047Y-121857142D01*
X34809523Y-121809523D01*
X34904761Y-121714285D01*
X34952380Y-121619047D01*
X34952380Y-121428571D01*
X34047619Y-122238095D02*
X34000000Y-122285714D01*
X33952380Y-122380952D01*
X33952380Y-122619047D01*
X34000000Y-122714285D01*
X34047619Y-122761904D01*
X34142857Y-122809523D01*
X34238095Y-122809523D01*
X34380952Y-122761904D01*
X34952380Y-122190476D01*
X34952380Y-122809523D01*
X35632380Y-102833333D02*
X35156190Y-102500000D01*
X35632380Y-102261904D02*
X34632380Y-102261904D01*
X34632380Y-102642857D01*
X34680000Y-102738095D01*
X34727619Y-102785714D01*
X34822857Y-102833333D01*
X34965714Y-102833333D01*
X35060952Y-102785714D01*
X35108571Y-102738095D01*
X35156190Y-102642857D01*
X35156190Y-102261904D01*
X34632380Y-103166666D02*
X34632380Y-103785714D01*
X35013333Y-103452380D01*
X35013333Y-103595238D01*
X35060952Y-103690476D01*
X35108571Y-103738095D01*
X35203809Y-103785714D01*
X35441904Y-103785714D01*
X35537142Y-103738095D01*
X35584761Y-103690476D01*
X35632380Y-103595238D01*
X35632380Y-103309523D01*
X35584761Y-103214285D01*
X35537142Y-103166666D01*
X25402380Y-108666666D02*
X26116666Y-108666666D01*
X26259523Y-108619047D01*
X26354761Y-108523809D01*
X26402380Y-108380952D01*
X26402380Y-108285714D01*
X26402380Y-109666666D02*
X26402380Y-109095238D01*
X26402380Y-109380952D02*
X25402380Y-109380952D01*
X25545238Y-109285714D01*
X25640476Y-109190476D01*
X25688095Y-109095238D01*
X67166666Y-104272380D02*
X67500000Y-103796190D01*
X67738095Y-104272380D02*
X67738095Y-103272380D01*
X67357142Y-103272380D01*
X67261904Y-103320000D01*
X67214285Y-103367619D01*
X67166666Y-103462857D01*
X67166666Y-103605714D01*
X67214285Y-103700952D01*
X67261904Y-103748571D01*
X67357142Y-103796190D01*
X67738095Y-103796190D01*
X66214285Y-104272380D02*
X66785714Y-104272380D01*
X66500000Y-104272380D02*
X66500000Y-103272380D01*
X66595238Y-103415238D01*
X66690476Y-103510476D01*
X66785714Y-103558095D01*
X37641667Y-110272380D02*
X37975001Y-109796190D01*
X38213096Y-110272380D02*
X38213096Y-109272380D01*
X37832143Y-109272380D01*
X37736905Y-109320000D01*
X37689286Y-109367619D01*
X37641667Y-109462857D01*
X37641667Y-109605714D01*
X37689286Y-109700952D01*
X37736905Y-109748571D01*
X37832143Y-109796190D01*
X38213096Y-109796190D01*
X36784524Y-109605714D02*
X36784524Y-110272380D01*
X37022620Y-109224761D02*
X37260715Y-109939047D01*
X36641667Y-109939047D01*
X37641667Y-119272380D02*
X37975001Y-118796190D01*
X38213096Y-119272380D02*
X38213096Y-118272380D01*
X37832143Y-118272380D01*
X37736905Y-118320000D01*
X37689286Y-118367619D01*
X37641667Y-118462857D01*
X37641667Y-118605714D01*
X37689286Y-118700952D01*
X37736905Y-118748571D01*
X37832143Y-118796190D01*
X38213096Y-118796190D01*
X36736905Y-118272380D02*
X37213096Y-118272380D01*
X37260715Y-118748571D01*
X37213096Y-118700952D01*
X37117858Y-118653333D01*
X36879762Y-118653333D01*
X36784524Y-118700952D01*
X36736905Y-118748571D01*
X36689286Y-118843809D01*
X36689286Y-119081904D01*
X36736905Y-119177142D01*
X36784524Y-119224761D01*
X36879762Y-119272380D01*
X37117858Y-119272380D01*
X37213096Y-119224761D01*
X37260715Y-119177142D01*
X67166666Y-129272380D02*
X67500000Y-128796190D01*
X67738095Y-129272380D02*
X67738095Y-128272380D01*
X67357142Y-128272380D01*
X67261904Y-128320000D01*
X67214285Y-128367619D01*
X67166666Y-128462857D01*
X67166666Y-128605714D01*
X67214285Y-128700952D01*
X67261904Y-128748571D01*
X67357142Y-128796190D01*
X67738095Y-128796190D01*
X66785714Y-128367619D02*
X66738095Y-128320000D01*
X66642857Y-128272380D01*
X66404761Y-128272380D01*
X66309523Y-128320000D01*
X66261904Y-128367619D01*
X66214285Y-128462857D01*
X66214285Y-128558095D01*
X66261904Y-128700952D01*
X66833333Y-129272380D01*
X66214285Y-129272380D01*
X56114285Y-125104761D02*
X55971428Y-125152380D01*
X55733333Y-125152380D01*
X55638095Y-125104761D01*
X55590476Y-125057142D01*
X55542857Y-124961904D01*
X55542857Y-124866666D01*
X55590476Y-124771428D01*
X55638095Y-124723809D01*
X55733333Y-124676190D01*
X55923809Y-124628571D01*
X56019047Y-124580952D01*
X56066666Y-124533333D01*
X56114285Y-124438095D01*
X56114285Y-124342857D01*
X56066666Y-124247619D01*
X56019047Y-124200000D01*
X55923809Y-124152380D01*
X55685714Y-124152380D01*
X55542857Y-124200000D01*
X55209523Y-124485714D02*
X55019047Y-125152380D01*
X54828571Y-124676190D01*
X54638095Y-125152380D01*
X54447619Y-124485714D01*
X54209523Y-124485714D02*
X53828571Y-124485714D01*
X54066666Y-124152380D02*
X54066666Y-125009523D01*
X54019047Y-125104761D01*
X53923809Y-125152380D01*
X53828571Y-125152380D01*
X53495238Y-125152380D02*
X53495238Y-124485714D01*
X53495238Y-124152380D02*
X53542857Y-124200000D01*
X53495238Y-124247619D01*
X53447619Y-124200000D01*
X53495238Y-124152380D01*
X53495238Y-124247619D01*
X52590476Y-125104761D02*
X52685714Y-125152380D01*
X52876190Y-125152380D01*
X52971428Y-125104761D01*
X53019047Y-125057142D01*
X53066666Y-124961904D01*
X53066666Y-124676190D01*
X53019047Y-124580952D01*
X52971428Y-124533333D01*
X52876190Y-124485714D01*
X52685714Y-124485714D01*
X52590476Y-124533333D01*
X52161904Y-125152380D02*
X52161904Y-124152380D01*
X51733333Y-125152380D02*
X51733333Y-124628571D01*
X51780952Y-124533333D01*
X51876190Y-124485714D01*
X52019047Y-124485714D01*
X52114285Y-124533333D01*
X52161904Y-124580952D01*
D11*
X70236000Y-108040000D02*
X70080000Y-108040000D01*
X67920000Y-108040000D02*
X67764000Y-108040000D01*
X67921392Y-104807665D02*
G75*
G03*
X67764484Y-108040000I1078608J-1672335D01*
G01*
X67920163Y-105438870D02*
G75*
G03*
X67920000Y-107520961I1079837J-1041130D01*
G01*
X70080000Y-107520961D02*
G75*
G03*
X70079837Y-105438870I-1080000J1040961D01*
G01*
X70235516Y-108040000D02*
G75*
G03*
X70078608Y-104807665I-1235516J1560000D01*
G01*
X70236000Y-124040000D02*
X70080000Y-124040000D01*
X67920000Y-124040000D02*
X67764000Y-124040000D01*
X70235516Y-124040000D02*
G75*
G03*
X70078608Y-120807665I-1235516J1560000D01*
G01*
X67920163Y-121438870D02*
G75*
G03*
X67920000Y-123520961I1079837J-1041130D01*
G01*
X67921392Y-120807665D02*
G75*
G03*
X67764484Y-124040000I1078608J-1672335D01*
G01*
X70080000Y-123520961D02*
G75*
G03*
X70079837Y-121438870I-1080000J1040961D01*
G01*
X32250000Y-120950000D02*
X32250000Y-124000000D01*
X33010000Y-127810000D02*
X27040000Y-127810000D01*
X32250000Y-127050000D02*
X32250000Y-124000000D01*
X27800000Y-124500000D02*
X27050000Y-124500000D01*
X27040000Y-127810000D02*
X27040000Y-120190000D01*
X27050000Y-123500000D02*
X27800000Y-123500000D01*
X27050000Y-120200000D02*
X27800000Y-120200000D01*
X27050000Y-127800000D02*
X27050000Y-126000000D01*
X33010000Y-120190000D02*
X33010000Y-127810000D01*
X27800000Y-126000000D02*
X27800000Y-127800000D01*
X29300000Y-120950000D02*
X32250000Y-120950000D01*
X26750000Y-119900000D02*
X28000000Y-119900000D01*
X27040000Y-120190000D02*
X33010000Y-120190000D01*
X27800000Y-123500000D02*
X27800000Y-124500000D01*
X27050000Y-124500000D02*
X27050000Y-123500000D01*
X27050000Y-122000000D02*
X27050000Y-120200000D01*
X27050000Y-126000000D02*
X27800000Y-126000000D01*
X29300000Y-120200000D02*
X29300000Y-120950000D01*
X26750000Y-121150000D02*
X26750000Y-119900000D01*
X27800000Y-127800000D02*
X27050000Y-127800000D01*
X27800000Y-122000000D02*
X27050000Y-122000000D01*
X29300000Y-127800000D02*
X29300000Y-127050000D01*
X29300000Y-127050000D02*
X32250000Y-127050000D01*
X27800000Y-120200000D02*
X27800000Y-122000000D01*
X35420000Y-112760000D02*
X36350000Y-112760000D01*
X38580000Y-112760000D02*
X37650000Y-112760000D01*
X35420000Y-112760000D02*
X35420000Y-110600000D01*
X38580000Y-112760000D02*
X38580000Y-111300000D01*
X38580000Y-122760000D02*
X37650000Y-122760000D01*
X38580000Y-122760000D02*
X38580000Y-121300000D01*
X35420000Y-122760000D02*
X36350000Y-122760000D01*
X35420000Y-122760000D02*
X35420000Y-120600000D01*
X36090000Y-102272936D02*
X36090000Y-103727064D01*
X37910000Y-102272936D02*
X37910000Y-103727064D01*
X32250000Y-102200000D02*
X32250000Y-109000000D01*
X32250000Y-115800000D02*
X32250000Y-109000000D01*
X29300000Y-115800000D02*
X32250000Y-115800000D01*
X27800000Y-101450000D02*
X27800000Y-103250000D01*
X27800000Y-104750000D02*
X27800000Y-113250000D01*
X26750000Y-101150000D02*
X28000000Y-101150000D01*
X27800000Y-103250000D02*
X27050000Y-103250000D01*
X27050000Y-114750000D02*
X27800000Y-114750000D01*
X27050000Y-104750000D02*
X27800000Y-104750000D01*
X33010000Y-116560000D02*
X27040000Y-116560000D01*
X27800000Y-116550000D02*
X27050000Y-116550000D01*
X26750000Y-102400000D02*
X26750000Y-101150000D01*
X29300000Y-102200000D02*
X32250000Y-102200000D01*
X29300000Y-101450000D02*
X29300000Y-102200000D01*
X27800000Y-114750000D02*
X27800000Y-116550000D01*
X27040000Y-116560000D02*
X27040000Y-101440000D01*
X27050000Y-113250000D02*
X27050000Y-104750000D01*
X29300000Y-116550000D02*
X29300000Y-115800000D01*
X27050000Y-116550000D02*
X27050000Y-114750000D01*
X27050000Y-101450000D02*
X27800000Y-101450000D01*
X27040000Y-101440000D02*
X33010000Y-101440000D01*
X27050000Y-103250000D02*
X27050000Y-101450000D01*
X27800000Y-113250000D02*
X27050000Y-113250000D01*
X33010000Y-101440000D02*
X33010000Y-116560000D01*
X66272936Y-102910000D02*
X67727064Y-102910000D01*
X66272936Y-101090000D02*
X67727064Y-101090000D01*
X36747937Y-107090000D02*
X38202065Y-107090000D01*
X36747937Y-108910000D02*
X38202065Y-108910000D01*
X36747937Y-116090000D02*
X38202065Y-116090000D01*
X36747937Y-117910000D02*
X38202065Y-117910000D01*
X66272936Y-127910000D02*
X67727064Y-127910000D01*
X66272936Y-126090000D02*
X67727064Y-126090000D01*
%LPC*%
D12*
X69000000Y-107750000D03*
D13*
X69000000Y-105210000D03*
D12*
X69000000Y-123750000D03*
D13*
X69000000Y-121210000D03*
D14*
X29500000Y-122750000D03*
D15*
X29500000Y-125250000D03*
D16*
X36050000Y-111000000D03*
X37950000Y-111000000D03*
X37000000Y-113000000D03*
X36050000Y-121000000D03*
X37950000Y-121000000D03*
X37000000Y-123000000D03*
D17*
X37000000Y-101450000D03*
X37000000Y-104550000D03*
D18*
X29500000Y-104000000D03*
D19*
X29500000Y-106500000D03*
X29500000Y-109000000D03*
X29500000Y-111500000D03*
X29500000Y-114000000D03*
D20*
X65450000Y-102000000D03*
X68550000Y-102000000D03*
X35925001Y-108000000D03*
X39025001Y-108000000D03*
X35925001Y-117000000D03*
X39025001Y-117000000D03*
X65450000Y-127000000D03*
X68550000Y-127000000D03*
D21*
X54000000Y-114500000D03*
M02*
