G04 #@! TF.GenerationSoftware,KiCad,Pcbnew,(6.0.4)*
G04 #@! TF.CreationDate,2022-04-25T12:44:50+02:00*
G04 #@! TF.ProjectId,switchpcb,73776974-6368-4706-9362-2e6b69636164,rev?*
G04 #@! TF.SameCoordinates,Original*
G04 #@! TF.FileFunction,Copper,L2,Bot*
G04 #@! TF.FilePolarity,Positive*
%FSLAX46Y46*%
G04 Gerber Fmt 4.6, Leading zero omitted, Abs format (unit mm)*
G04 Created by KiCad (PCBNEW (6.0.4)) date 2022-04-25 12:44:50*
%MOMM*%
%LPD*%
G01*
G04 APERTURE LIST*
G04 Aperture macros list*
%AMRoundRect*
0 Rectangle with rounded corners*
0 $1 Rounding radius*
0 $2 $3 $4 $5 $6 $7 $8 $9 X,Y pos of 4 corners*
0 Add a 4 corners polygon primitive as box body*
4,1,4,$2,$3,$4,$5,$6,$7,$8,$9,$2,$3,0*
0 Add four circle primitives for the rounded corners*
1,1,$1+$1,$2,$3*
1,1,$1+$1,$4,$5*
1,1,$1+$1,$6,$7*
1,1,$1+$1,$8,$9*
0 Add four rect primitives between the rounded corners*
20,1,$1+$1,$2,$3,$4,$5,0*
20,1,$1+$1,$4,$5,$6,$7,0*
20,1,$1+$1,$6,$7,$8,$9,0*
20,1,$1+$1,$8,$9,$2,$3,0*%
G04 Aperture macros list end*
G04 #@! TA.AperFunction,ComponentPad*
%ADD10R,1.800000X1.800000*%
G04 #@! TD*
G04 #@! TA.AperFunction,ComponentPad*
%ADD11C,1.800000*%
G04 #@! TD*
G04 #@! TA.AperFunction,ComponentPad*
%ADD12RoundRect,0.250000X-0.750000X0.600000X-0.750000X-0.600000X0.750000X-0.600000X0.750000X0.600000X0*%
G04 #@! TD*
G04 #@! TA.AperFunction,ComponentPad*
%ADD13O,2.000000X1.700000*%
G04 #@! TD*
G04 #@! TA.AperFunction,SMDPad,CuDef*
%ADD14R,0.800000X0.900000*%
G04 #@! TD*
G04 #@! TA.AperFunction,SMDPad,CuDef*
%ADD15RoundRect,0.250000X-0.625000X0.400000X-0.625000X-0.400000X0.625000X-0.400000X0.625000X0.400000X0*%
G04 #@! TD*
G04 #@! TA.AperFunction,ComponentPad*
%ADD16RoundRect,0.250000X-0.725000X0.600000X-0.725000X-0.600000X0.725000X-0.600000X0.725000X0.600000X0*%
G04 #@! TD*
G04 #@! TA.AperFunction,ComponentPad*
%ADD17O,1.950000X1.700000*%
G04 #@! TD*
G04 #@! TA.AperFunction,SMDPad,CuDef*
%ADD18RoundRect,0.250000X-0.400000X-0.625000X0.400000X-0.625000X0.400000X0.625000X-0.400000X0.625000X0*%
G04 #@! TD*
G04 #@! TA.AperFunction,WasherPad*
%ADD19C,18.000000*%
G04 #@! TD*
G04 #@! TA.AperFunction,ViaPad*
%ADD20C,0.800000*%
G04 #@! TD*
G04 #@! TA.AperFunction,Conductor*
%ADD21C,0.500000*%
G04 #@! TD*
G04 #@! TA.AperFunction,Conductor*
%ADD22C,0.254000*%
G04 #@! TD*
G04 APERTURE END LIST*
D10*
X69000000Y-107750000D03*
D11*
X69000000Y-105210000D03*
D10*
X69000000Y-123750000D03*
D11*
X69000000Y-121210000D03*
D12*
X29500000Y-122750000D03*
D13*
X29500000Y-125250000D03*
D14*
X36050000Y-111000000D03*
X37950000Y-111000000D03*
X37000000Y-113000000D03*
X36050000Y-121000000D03*
X37950000Y-121000000D03*
X37000000Y-123000000D03*
D15*
X37000000Y-101450000D03*
X37000000Y-104550000D03*
D16*
X29500000Y-104000000D03*
D17*
X29500000Y-106500000D03*
X29500000Y-109000000D03*
X29500000Y-111500000D03*
X29500000Y-114000000D03*
D18*
X65450000Y-102000000D03*
X68550000Y-102000000D03*
X35925001Y-108000000D03*
X39025001Y-108000000D03*
X35925001Y-117000000D03*
X39025001Y-117000000D03*
X65450000Y-127000000D03*
X68550000Y-127000000D03*
D19*
X54000000Y-114500000D03*
D20*
X70500000Y-112250000D03*
X40000000Y-110750000D03*
X61250000Y-128500000D03*
X40500000Y-103750000D03*
X39500000Y-114500000D03*
D21*
X70500000Y-109250000D02*
X69000000Y-107750000D01*
X40000000Y-111150002D02*
X40000000Y-110750000D01*
X37000000Y-113000000D02*
X38150002Y-113000000D01*
X70500000Y-112250000D02*
X70500000Y-109250000D01*
X38150002Y-113000000D02*
X40000000Y-111150002D01*
X68550000Y-102000000D02*
X68550000Y-104760000D01*
X68550000Y-104760000D02*
X69000000Y-105210000D01*
X68550000Y-127000000D02*
X70750000Y-127000000D01*
X70750000Y-127000000D02*
X71750000Y-126000000D01*
X71750000Y-122687208D02*
X70272792Y-121210000D01*
X71750000Y-126000000D02*
X71750000Y-122687208D01*
X70272792Y-121210000D02*
X69000000Y-121210000D01*
X41500000Y-123000000D02*
X47000000Y-128500000D01*
X37000000Y-123000000D02*
X41500000Y-123000000D01*
X47000000Y-128500000D02*
X61250000Y-128500000D01*
X63824990Y-100374990D02*
X65450000Y-102000000D01*
X68000000Y-110250000D02*
X68000000Y-118750000D01*
X65450000Y-106450000D02*
X67000000Y-108000000D01*
X32000000Y-104000000D02*
X34550000Y-101450000D01*
X67000000Y-109250000D02*
X68000000Y-110250000D01*
X66000000Y-120750000D02*
X66000000Y-126450000D01*
X29500000Y-104000000D02*
X32000000Y-104000000D01*
X34550000Y-101450000D02*
X37000000Y-101450000D01*
X46125010Y-100374990D02*
X63824990Y-100374990D01*
X37000000Y-101450000D02*
X45050000Y-101450000D01*
X45050000Y-101450000D02*
X46125010Y-100374990D01*
X67000000Y-108000000D02*
X67000000Y-109250000D01*
X68000000Y-118750000D02*
X66000000Y-120750000D01*
X66000000Y-126450000D02*
X65450000Y-127000000D01*
X65450000Y-102000000D02*
X65450000Y-106450000D01*
X29500000Y-120500000D02*
X26500000Y-117500000D01*
X27750000Y-106500000D02*
X29500000Y-106500000D01*
X26500000Y-117500000D02*
X26500000Y-107750000D01*
X26500000Y-107750000D02*
X27750000Y-106500000D01*
X32500000Y-106500000D02*
X34450000Y-104550000D01*
X34450000Y-104550000D02*
X37000000Y-104550000D01*
X29500000Y-106500000D02*
X32500000Y-106500000D01*
X29500000Y-122750000D02*
X29500000Y-120500000D01*
X33750000Y-108000000D02*
X35925001Y-108000000D01*
X36050000Y-108124999D02*
X35925001Y-108000000D01*
X32750000Y-109000000D02*
X33750000Y-108000000D01*
X29500000Y-109000000D02*
X32750000Y-109000000D01*
X36050000Y-111000000D02*
X36050000Y-108124999D01*
X29500000Y-111500000D02*
X32750000Y-111500000D01*
X32750000Y-111500000D02*
X33750000Y-112500000D01*
X33750000Y-112500000D02*
X33750000Y-116500000D01*
X36050000Y-117124999D02*
X35925001Y-117000000D01*
X36050000Y-121000000D02*
X36050000Y-117124999D01*
X33750000Y-116500000D02*
X34250000Y-117000000D01*
X34250000Y-117000000D02*
X35925001Y-117000000D01*
X39500000Y-116525001D02*
X39025001Y-117000000D01*
X39500000Y-114500000D02*
X39500000Y-116525001D01*
X37950000Y-111000000D02*
X37950000Y-109075001D01*
X40500000Y-106525001D02*
X39025001Y-108000000D01*
X39025001Y-119924999D02*
X37950000Y-121000000D01*
X40500000Y-103750000D02*
X40500000Y-106525001D01*
X37950000Y-109075001D02*
X39025001Y-108000000D01*
X39025001Y-117000000D02*
X39025001Y-119924999D01*
D22*
X72340001Y-122025630D02*
X70929326Y-120614956D01*
X70901609Y-120581183D01*
X70766851Y-120470589D01*
X70613105Y-120388411D01*
X70446282Y-120337805D01*
X70316269Y-120325000D01*
X70316261Y-120325000D01*
X70272792Y-120320719D01*
X70253218Y-120322647D01*
X70192312Y-120231495D01*
X69978505Y-120017688D01*
X69727095Y-119849701D01*
X69447743Y-119733989D01*
X69151184Y-119675000D01*
X68848816Y-119675000D01*
X68552257Y-119733989D01*
X68272905Y-119849701D01*
X68021495Y-120017688D01*
X67807688Y-120231495D01*
X67639701Y-120482905D01*
X67523989Y-120762257D01*
X67465000Y-121058816D01*
X67465000Y-121361184D01*
X67523989Y-121657743D01*
X67639701Y-121937095D01*
X67807688Y-122188505D01*
X67874127Y-122254944D01*
X67855820Y-122260498D01*
X67745506Y-122319463D01*
X67648815Y-122398815D01*
X67569463Y-122495506D01*
X67510498Y-122605820D01*
X67474188Y-122725518D01*
X67461928Y-122850000D01*
X67461928Y-124650000D01*
X67474188Y-124774482D01*
X67510498Y-124894180D01*
X67569463Y-125004494D01*
X67648815Y-125101185D01*
X67745506Y-125180537D01*
X67855820Y-125239502D01*
X67975518Y-125275812D01*
X68100000Y-125288072D01*
X69900000Y-125288072D01*
X70024482Y-125275812D01*
X70144180Y-125239502D01*
X70254494Y-125180537D01*
X70351185Y-125101185D01*
X70430537Y-125004494D01*
X70489502Y-124894180D01*
X70525812Y-124774482D01*
X70538072Y-124650000D01*
X70538072Y-122850000D01*
X70525812Y-122725518D01*
X70521057Y-122709844D01*
X70865001Y-123053788D01*
X70865000Y-125633421D01*
X70383422Y-126115000D01*
X69794694Y-126115000D01*
X69770472Y-126035150D01*
X69688405Y-125881614D01*
X69577962Y-125747038D01*
X69443386Y-125636595D01*
X69289850Y-125554528D01*
X69123254Y-125503992D01*
X68950000Y-125486928D01*
X68150000Y-125486928D01*
X67976746Y-125503992D01*
X67810150Y-125554528D01*
X67656614Y-125636595D01*
X67522038Y-125747038D01*
X67411595Y-125881614D01*
X67329528Y-126035150D01*
X67278992Y-126201746D01*
X67261928Y-126375000D01*
X67261928Y-127625000D01*
X67278992Y-127798254D01*
X67329528Y-127964850D01*
X67411595Y-128118386D01*
X67522038Y-128252962D01*
X67656614Y-128363405D01*
X67810150Y-128445472D01*
X67976746Y-128496008D01*
X68150000Y-128513072D01*
X68950000Y-128513072D01*
X69123254Y-128496008D01*
X69289850Y-128445472D01*
X69443386Y-128363405D01*
X69577962Y-128252962D01*
X69688405Y-128118386D01*
X69770472Y-127964850D01*
X69794694Y-127885000D01*
X70706531Y-127885000D01*
X70750000Y-127889281D01*
X70793469Y-127885000D01*
X70793477Y-127885000D01*
X70923490Y-127872195D01*
X71090313Y-127821589D01*
X71244059Y-127739411D01*
X71378817Y-127628817D01*
X71406534Y-127595044D01*
X72340001Y-126661578D01*
X72340001Y-129340000D01*
X61855802Y-129340000D01*
X61909774Y-129303937D01*
X62053937Y-129159774D01*
X62167205Y-128990256D01*
X62245226Y-128801898D01*
X62285000Y-128601939D01*
X62285000Y-128398061D01*
X62245226Y-128198102D01*
X62167205Y-128009744D01*
X62053937Y-127840226D01*
X61909774Y-127696063D01*
X61740256Y-127582795D01*
X61551898Y-127504774D01*
X61351939Y-127465000D01*
X61148061Y-127465000D01*
X60948102Y-127504774D01*
X60759744Y-127582795D01*
X60711546Y-127615000D01*
X47366579Y-127615000D01*
X42156534Y-122404956D01*
X42128817Y-122371183D01*
X41994059Y-122260589D01*
X41840313Y-122178411D01*
X41673490Y-122127805D01*
X41543477Y-122115000D01*
X41543469Y-122115000D01*
X41500000Y-122110719D01*
X41456531Y-122115000D01*
X37864468Y-122115000D01*
X37851185Y-122098815D01*
X37754494Y-122019463D01*
X37738393Y-122010857D01*
X37823000Y-121926250D01*
X37823000Y-121127000D01*
X38077000Y-121127000D01*
X38077000Y-121926250D01*
X38235750Y-122085000D01*
X38350000Y-122088072D01*
X38474482Y-122075812D01*
X38594180Y-122039502D01*
X38704494Y-121980537D01*
X38801185Y-121901185D01*
X38880537Y-121804494D01*
X38939502Y-121694180D01*
X38975812Y-121574482D01*
X38988072Y-121450000D01*
X38985000Y-121285750D01*
X38826250Y-121127000D01*
X38077000Y-121127000D01*
X37823000Y-121127000D01*
X37803000Y-121127000D01*
X37803000Y-120873000D01*
X37823000Y-120873000D01*
X37823000Y-120073750D01*
X38077000Y-120073750D01*
X38077000Y-120873000D01*
X38826250Y-120873000D01*
X38985000Y-120714250D01*
X38988072Y-120550000D01*
X38975812Y-120425518D01*
X38939502Y-120305820D01*
X38880537Y-120195506D01*
X38801185Y-120098815D01*
X38704494Y-120019463D01*
X38594180Y-119960498D01*
X38474482Y-119924188D01*
X38350000Y-119911928D01*
X38235750Y-119915000D01*
X38077000Y-120073750D01*
X37823000Y-120073750D01*
X37664250Y-119915000D01*
X37550000Y-119911928D01*
X37425518Y-119924188D01*
X37305820Y-119960498D01*
X37195506Y-120019463D01*
X37098815Y-120098815D01*
X37019463Y-120195506D01*
X37000000Y-120231918D01*
X36980537Y-120195506D01*
X36935000Y-120140019D01*
X36935000Y-118267704D01*
X36952963Y-118252962D01*
X37063406Y-118118386D01*
X37145473Y-117964850D01*
X37172728Y-117875000D01*
X37736929Y-117875000D01*
X37749189Y-117999482D01*
X37785499Y-118119180D01*
X37844464Y-118229494D01*
X37923816Y-118326185D01*
X38020507Y-118405537D01*
X38130821Y-118464502D01*
X38250519Y-118500812D01*
X38375001Y-118513072D01*
X38739251Y-118510000D01*
X38898001Y-118351250D01*
X38898001Y-117127000D01*
X39152001Y-117127000D01*
X39152001Y-118351250D01*
X39310751Y-118510000D01*
X39675001Y-118513072D01*
X39799483Y-118500812D01*
X39919181Y-118464502D01*
X40029495Y-118405537D01*
X40126186Y-118326185D01*
X40205538Y-118229494D01*
X40264503Y-118119180D01*
X40300813Y-117999482D01*
X40313073Y-117875000D01*
X40310001Y-117285750D01*
X40151251Y-117127000D01*
X39152001Y-117127000D01*
X38898001Y-117127000D01*
X37898751Y-117127000D01*
X37740001Y-117285750D01*
X37736929Y-117875000D01*
X37172728Y-117875000D01*
X37196009Y-117798254D01*
X37213073Y-117625000D01*
X37213073Y-116375000D01*
X37196009Y-116201746D01*
X37172729Y-116125000D01*
X37736929Y-116125000D01*
X37740001Y-116714250D01*
X37898751Y-116873000D01*
X38898001Y-116873000D01*
X38898001Y-115648750D01*
X39152001Y-115648750D01*
X39152001Y-116873000D01*
X40151251Y-116873000D01*
X40310001Y-116714250D01*
X40313073Y-116125000D01*
X40300813Y-116000518D01*
X40264503Y-115880820D01*
X40205538Y-115770506D01*
X40126186Y-115673815D01*
X40029495Y-115594463D01*
X39919181Y-115535498D01*
X39799483Y-115499188D01*
X39675001Y-115486928D01*
X39310751Y-115490000D01*
X39152001Y-115648750D01*
X38898001Y-115648750D01*
X38739251Y-115490000D01*
X38375001Y-115486928D01*
X38250519Y-115499188D01*
X38130821Y-115535498D01*
X38020507Y-115594463D01*
X37923816Y-115673815D01*
X37844464Y-115770506D01*
X37785499Y-115880820D01*
X37749189Y-116000518D01*
X37736929Y-116125000D01*
X37172729Y-116125000D01*
X37145473Y-116035150D01*
X37063406Y-115881614D01*
X36952963Y-115747038D01*
X36818387Y-115636595D01*
X36664851Y-115554528D01*
X36498255Y-115503992D01*
X36325001Y-115486928D01*
X35525001Y-115486928D01*
X35351747Y-115503992D01*
X35185151Y-115554528D01*
X35031615Y-115636595D01*
X34897039Y-115747038D01*
X34786596Y-115881614D01*
X34704529Y-116035150D01*
X34680307Y-116115000D01*
X34635000Y-116115000D01*
X34635000Y-112543469D01*
X34639281Y-112500000D01*
X34635000Y-112456531D01*
X34635000Y-112456523D01*
X34622195Y-112326510D01*
X34602198Y-112260589D01*
X34571589Y-112159686D01*
X34489411Y-112005941D01*
X34406532Y-111904953D01*
X34406530Y-111904951D01*
X34378817Y-111871183D01*
X34345050Y-111843471D01*
X33406534Y-110904956D01*
X33378817Y-110871183D01*
X33244059Y-110760589D01*
X33090313Y-110678411D01*
X32923490Y-110627805D01*
X32793477Y-110615000D01*
X32793469Y-110615000D01*
X32750000Y-110610719D01*
X32706531Y-110615000D01*
X30819759Y-110615000D01*
X30680134Y-110444866D01*
X30454014Y-110259294D01*
X30436626Y-110250000D01*
X30454014Y-110240706D01*
X30680134Y-110055134D01*
X30819759Y-109885000D01*
X32706531Y-109885000D01*
X32750000Y-109889281D01*
X32793469Y-109885000D01*
X32793477Y-109885000D01*
X32923490Y-109872195D01*
X33090313Y-109821589D01*
X33244059Y-109739411D01*
X33378817Y-109628817D01*
X33406534Y-109595044D01*
X34116579Y-108885000D01*
X34680307Y-108885000D01*
X34704529Y-108964850D01*
X34786596Y-109118386D01*
X34897039Y-109252962D01*
X35031615Y-109363405D01*
X35165001Y-109434701D01*
X35165000Y-110140018D01*
X35119463Y-110195506D01*
X35060498Y-110305820D01*
X35024188Y-110425518D01*
X35011928Y-110550000D01*
X35011928Y-111450000D01*
X35024188Y-111574482D01*
X35060498Y-111694180D01*
X35119463Y-111804494D01*
X35198815Y-111901185D01*
X35295506Y-111980537D01*
X35405820Y-112039502D01*
X35525518Y-112075812D01*
X35650000Y-112088072D01*
X36161905Y-112088072D01*
X36148815Y-112098815D01*
X36069463Y-112195506D01*
X36010498Y-112305820D01*
X35974188Y-112425518D01*
X35961928Y-112550000D01*
X35961928Y-113450000D01*
X35974188Y-113574482D01*
X36010498Y-113694180D01*
X36069463Y-113804494D01*
X36148815Y-113901185D01*
X36245506Y-113980537D01*
X36355820Y-114039502D01*
X36475518Y-114075812D01*
X36600000Y-114088072D01*
X37400000Y-114088072D01*
X37524482Y-114075812D01*
X37644180Y-114039502D01*
X37754494Y-113980537D01*
X37807953Y-113936664D01*
X46842134Y-113936664D01*
X46842134Y-115063336D01*
X47018384Y-116176138D01*
X47366545Y-117247667D01*
X47878044Y-118251540D01*
X48540285Y-119163037D01*
X49336963Y-119959715D01*
X50248460Y-120621956D01*
X51252333Y-121133455D01*
X52323862Y-121481616D01*
X53436664Y-121657866D01*
X54563336Y-121657866D01*
X55676138Y-121481616D01*
X56747667Y-121133455D01*
X57751540Y-120621956D01*
X58663037Y-119959715D01*
X59459715Y-119163037D01*
X60121956Y-118251540D01*
X60633455Y-117247667D01*
X60981616Y-116176138D01*
X61157866Y-115063336D01*
X61157866Y-113936664D01*
X60981616Y-112823862D01*
X60633455Y-111752333D01*
X60121956Y-110748460D01*
X59459715Y-109836963D01*
X58663037Y-109040285D01*
X57751540Y-108378044D01*
X56747667Y-107866545D01*
X55676138Y-107518384D01*
X54563336Y-107342134D01*
X53436664Y-107342134D01*
X52323862Y-107518384D01*
X51252333Y-107866545D01*
X50248460Y-108378044D01*
X49336963Y-109040285D01*
X48540285Y-109836963D01*
X47878044Y-110748460D01*
X47366545Y-111752333D01*
X47018384Y-112823862D01*
X46842134Y-113936664D01*
X37807953Y-113936664D01*
X37851185Y-113901185D01*
X37864468Y-113885000D01*
X38106533Y-113885000D01*
X38150002Y-113889281D01*
X38193471Y-113885000D01*
X38193479Y-113885000D01*
X38323492Y-113872195D01*
X38490315Y-113821589D01*
X38644061Y-113739411D01*
X38778819Y-113628817D01*
X38806536Y-113595044D01*
X40595050Y-111806531D01*
X40628817Y-111778819D01*
X40739411Y-111644061D01*
X40821589Y-111490315D01*
X40872195Y-111323492D01*
X40874029Y-111304874D01*
X40917205Y-111240256D01*
X40995226Y-111051898D01*
X41035000Y-110851939D01*
X41035000Y-110648061D01*
X40995226Y-110448102D01*
X40917205Y-110259744D01*
X40803937Y-110090226D01*
X40659774Y-109946063D01*
X40490256Y-109832795D01*
X40301898Y-109754774D01*
X40101939Y-109715000D01*
X39898061Y-109715000D01*
X39698102Y-109754774D01*
X39509744Y-109832795D01*
X39340226Y-109946063D01*
X39196063Y-110090226D01*
X39082795Y-110259744D01*
X39004774Y-110448102D01*
X38986891Y-110538007D01*
X38975812Y-110425518D01*
X38939502Y-110305820D01*
X38880537Y-110195506D01*
X38801185Y-110098815D01*
X38704494Y-110019463D01*
X38594180Y-109960498D01*
X38474482Y-109924188D01*
X38350000Y-109911928D01*
X38235750Y-109915000D01*
X38077000Y-110073750D01*
X38077000Y-110873000D01*
X38097000Y-110873000D01*
X38097000Y-111127000D01*
X38077000Y-111127000D01*
X38077000Y-111147000D01*
X37823000Y-111147000D01*
X37823000Y-111127000D01*
X37803000Y-111127000D01*
X37803000Y-110873000D01*
X37823000Y-110873000D01*
X37823000Y-110073750D01*
X37664250Y-109915000D01*
X37550000Y-109911928D01*
X37425518Y-109924188D01*
X37305820Y-109960498D01*
X37195506Y-110019463D01*
X37098815Y-110098815D01*
X37019463Y-110195506D01*
X37000000Y-110231918D01*
X36980537Y-110195506D01*
X36935000Y-110140019D01*
X36935000Y-109267704D01*
X36952963Y-109252962D01*
X37063406Y-109118386D01*
X37145473Y-108964850D01*
X37172728Y-108875000D01*
X37736929Y-108875000D01*
X37749189Y-108999482D01*
X37785499Y-109119180D01*
X37844464Y-109229494D01*
X37923816Y-109326185D01*
X38020507Y-109405537D01*
X38130821Y-109464502D01*
X38250519Y-109500812D01*
X38375001Y-109513072D01*
X38739251Y-109510000D01*
X38898001Y-109351250D01*
X38898001Y-108127000D01*
X39152001Y-108127000D01*
X39152001Y-109351250D01*
X39310751Y-109510000D01*
X39675001Y-109513072D01*
X39799483Y-109500812D01*
X39919181Y-109464502D01*
X40029495Y-109405537D01*
X40126186Y-109326185D01*
X40205538Y-109229494D01*
X40264503Y-109119180D01*
X40300813Y-108999482D01*
X40313073Y-108875000D01*
X40310001Y-108285750D01*
X40151251Y-108127000D01*
X39152001Y-108127000D01*
X38898001Y-108127000D01*
X37898751Y-108127000D01*
X37740001Y-108285750D01*
X37736929Y-108875000D01*
X37172728Y-108875000D01*
X37196009Y-108798254D01*
X37213073Y-108625000D01*
X37213073Y-107375000D01*
X37196009Y-107201746D01*
X37172729Y-107125000D01*
X37736929Y-107125000D01*
X37740001Y-107714250D01*
X37898751Y-107873000D01*
X38898001Y-107873000D01*
X38898001Y-106648750D01*
X39152001Y-106648750D01*
X39152001Y-107873000D01*
X40151251Y-107873000D01*
X40310001Y-107714250D01*
X40313073Y-107125000D01*
X40300813Y-107000518D01*
X40264503Y-106880820D01*
X40205538Y-106770506D01*
X40126186Y-106673815D01*
X40029495Y-106594463D01*
X39919181Y-106535498D01*
X39799483Y-106499188D01*
X39675001Y-106486928D01*
X39310751Y-106490000D01*
X39152001Y-106648750D01*
X38898001Y-106648750D01*
X38739251Y-106490000D01*
X38375001Y-106486928D01*
X38250519Y-106499188D01*
X38130821Y-106535498D01*
X38020507Y-106594463D01*
X37923816Y-106673815D01*
X37844464Y-106770506D01*
X37785499Y-106880820D01*
X37749189Y-107000518D01*
X37736929Y-107125000D01*
X37172729Y-107125000D01*
X37145473Y-107035150D01*
X37063406Y-106881614D01*
X36952963Y-106747038D01*
X36818387Y-106636595D01*
X36664851Y-106554528D01*
X36498255Y-106503992D01*
X36325001Y-106486928D01*
X35525001Y-106486928D01*
X35351747Y-106503992D01*
X35185151Y-106554528D01*
X35031615Y-106636595D01*
X34897039Y-106747038D01*
X34786596Y-106881614D01*
X34704529Y-107035150D01*
X34680307Y-107115000D01*
X33793469Y-107115000D01*
X33750000Y-107110719D01*
X33706531Y-107115000D01*
X33706523Y-107115000D01*
X33576510Y-107127805D01*
X33409686Y-107178411D01*
X33255941Y-107260589D01*
X33154953Y-107343468D01*
X33154951Y-107343470D01*
X33121183Y-107371183D01*
X33093470Y-107404951D01*
X32383422Y-108115000D01*
X30819759Y-108115000D01*
X30680134Y-107944866D01*
X30454014Y-107759294D01*
X30436626Y-107750000D01*
X30454014Y-107740706D01*
X30680134Y-107555134D01*
X30819759Y-107385000D01*
X32456531Y-107385000D01*
X32500000Y-107389281D01*
X32543469Y-107385000D01*
X32543477Y-107385000D01*
X32673490Y-107372195D01*
X32840313Y-107321589D01*
X32994059Y-107239411D01*
X33128817Y-107128817D01*
X33156534Y-107095044D01*
X34816579Y-105435000D01*
X35632113Y-105435000D01*
X35636595Y-105443386D01*
X35747038Y-105577962D01*
X35881614Y-105688405D01*
X36035150Y-105770472D01*
X36201746Y-105821008D01*
X36375000Y-105838072D01*
X37625000Y-105838072D01*
X37798254Y-105821008D01*
X37964850Y-105770472D01*
X38118386Y-105688405D01*
X38252962Y-105577962D01*
X38363405Y-105443386D01*
X38445472Y-105289850D01*
X38496008Y-105123254D01*
X38513072Y-104950000D01*
X38513072Y-104150000D01*
X38496008Y-103976746D01*
X38445472Y-103810150D01*
X38363405Y-103656614D01*
X38252962Y-103522038D01*
X38118386Y-103411595D01*
X37964850Y-103329528D01*
X37798254Y-103278992D01*
X37625000Y-103261928D01*
X36375000Y-103261928D01*
X36201746Y-103278992D01*
X36035150Y-103329528D01*
X35881614Y-103411595D01*
X35747038Y-103522038D01*
X35636595Y-103656614D01*
X35632113Y-103665000D01*
X34493465Y-103665000D01*
X34449999Y-103660719D01*
X34406533Y-103665000D01*
X34406523Y-103665000D01*
X34276510Y-103677805D01*
X34109687Y-103728411D01*
X33955941Y-103810589D01*
X33955939Y-103810590D01*
X33955940Y-103810590D01*
X33854953Y-103893468D01*
X33854951Y-103893470D01*
X33821183Y-103921183D01*
X33793470Y-103954951D01*
X32133422Y-105615000D01*
X30819759Y-105615000D01*
X30680134Y-105444866D01*
X30616663Y-105392777D01*
X30718386Y-105338405D01*
X30852962Y-105227962D01*
X30963405Y-105093386D01*
X31045472Y-104939850D01*
X31062110Y-104885000D01*
X31956531Y-104885000D01*
X32000000Y-104889281D01*
X32043469Y-104885000D01*
X32043477Y-104885000D01*
X32173490Y-104872195D01*
X32340313Y-104821589D01*
X32494059Y-104739411D01*
X32628817Y-104628817D01*
X32656534Y-104595044D01*
X34916579Y-102335000D01*
X35632113Y-102335000D01*
X35636595Y-102343386D01*
X35747038Y-102477962D01*
X35881614Y-102588405D01*
X36035150Y-102670472D01*
X36201746Y-102721008D01*
X36375000Y-102738072D01*
X37625000Y-102738072D01*
X37798254Y-102721008D01*
X37964850Y-102670472D01*
X38118386Y-102588405D01*
X38252962Y-102477962D01*
X38363405Y-102343386D01*
X38367887Y-102335000D01*
X45006531Y-102335000D01*
X45050000Y-102339281D01*
X45093469Y-102335000D01*
X45093477Y-102335000D01*
X45223490Y-102322195D01*
X45390313Y-102271589D01*
X45544059Y-102189411D01*
X45678817Y-102078817D01*
X45706534Y-102045044D01*
X46491589Y-101259990D01*
X63458412Y-101259990D01*
X64161928Y-101963507D01*
X64161928Y-102625000D01*
X64178992Y-102798254D01*
X64229528Y-102964850D01*
X64311595Y-103118386D01*
X64422038Y-103252962D01*
X64556614Y-103363405D01*
X64565000Y-103367888D01*
X64565001Y-106406521D01*
X64560719Y-106450000D01*
X64577805Y-106623490D01*
X64628412Y-106790313D01*
X64710590Y-106944059D01*
X64793468Y-107045046D01*
X64793471Y-107045049D01*
X64821184Y-107078817D01*
X64854951Y-107106529D01*
X66115000Y-108366579D01*
X66115001Y-109206522D01*
X66110719Y-109250000D01*
X66127805Y-109423490D01*
X66178412Y-109590313D01*
X66260590Y-109744059D01*
X66343468Y-109845046D01*
X66343471Y-109845049D01*
X66371184Y-109878817D01*
X66404951Y-109906529D01*
X67115000Y-110616579D01*
X67115001Y-118383420D01*
X65404956Y-120093466D01*
X65371183Y-120121183D01*
X65260589Y-120255942D01*
X65178411Y-120409688D01*
X65127805Y-120576511D01*
X65115000Y-120706524D01*
X65115000Y-120706531D01*
X65110719Y-120750000D01*
X65115000Y-120793469D01*
X65115001Y-125486928D01*
X65050000Y-125486928D01*
X64876746Y-125503992D01*
X64710150Y-125554528D01*
X64556614Y-125636595D01*
X64422038Y-125747038D01*
X64311595Y-125881614D01*
X64229528Y-126035150D01*
X64178992Y-126201746D01*
X64161928Y-126375000D01*
X64161928Y-127625000D01*
X64178992Y-127798254D01*
X64229528Y-127964850D01*
X64311595Y-128118386D01*
X64422038Y-128252962D01*
X64556614Y-128363405D01*
X64710150Y-128445472D01*
X64876746Y-128496008D01*
X65050000Y-128513072D01*
X65850000Y-128513072D01*
X66023254Y-128496008D01*
X66189850Y-128445472D01*
X66343386Y-128363405D01*
X66477962Y-128252962D01*
X66588405Y-128118386D01*
X66670472Y-127964850D01*
X66721008Y-127798254D01*
X66738072Y-127625000D01*
X66738072Y-126945691D01*
X66739411Y-126944059D01*
X66821589Y-126790313D01*
X66872195Y-126623490D01*
X66885000Y-126493477D01*
X66885000Y-126493467D01*
X66889281Y-126450001D01*
X66885000Y-126406535D01*
X66885000Y-121116578D01*
X68595049Y-119406530D01*
X68628817Y-119378817D01*
X68739411Y-119244059D01*
X68821589Y-119090313D01*
X68872195Y-118923490D01*
X68885000Y-118793477D01*
X68885000Y-118793467D01*
X68889281Y-118750001D01*
X68885000Y-118706535D01*
X68885000Y-110293469D01*
X68889281Y-110250000D01*
X68885000Y-110206531D01*
X68885000Y-110206523D01*
X68872195Y-110076510D01*
X68852198Y-110010589D01*
X68821589Y-109909686D01*
X68739411Y-109755941D01*
X68656532Y-109654953D01*
X68656530Y-109654951D01*
X68628817Y-109621183D01*
X68595050Y-109593471D01*
X68289651Y-109288072D01*
X69286493Y-109288072D01*
X69615001Y-109616580D01*
X69615000Y-111711545D01*
X69582795Y-111759744D01*
X69504774Y-111948102D01*
X69465000Y-112148061D01*
X69465000Y-112351939D01*
X69504774Y-112551898D01*
X69582795Y-112740256D01*
X69696063Y-112909774D01*
X69840226Y-113053937D01*
X70009744Y-113167205D01*
X70198102Y-113245226D01*
X70398061Y-113285000D01*
X70601939Y-113285000D01*
X70801898Y-113245226D01*
X70990256Y-113167205D01*
X71159774Y-113053937D01*
X71303937Y-112909774D01*
X71417205Y-112740256D01*
X71495226Y-112551898D01*
X71535000Y-112351939D01*
X71535000Y-112148061D01*
X71495226Y-111948102D01*
X71417205Y-111759744D01*
X71385000Y-111711546D01*
X71385000Y-109293465D01*
X71389281Y-109249999D01*
X71385000Y-109206533D01*
X71385000Y-109206523D01*
X71372195Y-109076510D01*
X71321589Y-108909687D01*
X71239411Y-108755941D01*
X71200796Y-108708889D01*
X71156532Y-108654953D01*
X71156530Y-108654951D01*
X71128817Y-108621183D01*
X71095049Y-108593470D01*
X70538072Y-108036493D01*
X70538072Y-106850000D01*
X70525812Y-106725518D01*
X70489502Y-106605820D01*
X70430537Y-106495506D01*
X70351185Y-106398815D01*
X70254494Y-106319463D01*
X70144180Y-106260498D01*
X70125873Y-106254944D01*
X70192312Y-106188505D01*
X70360299Y-105937095D01*
X70476011Y-105657743D01*
X70535000Y-105361184D01*
X70535000Y-105058816D01*
X70476011Y-104762257D01*
X70360299Y-104482905D01*
X70192312Y-104231495D01*
X69978505Y-104017688D01*
X69727095Y-103849701D01*
X69447743Y-103733989D01*
X69435000Y-103731454D01*
X69435000Y-103367887D01*
X69443386Y-103363405D01*
X69577962Y-103252962D01*
X69688405Y-103118386D01*
X69770472Y-102964850D01*
X69821008Y-102798254D01*
X69838072Y-102625000D01*
X69838072Y-101375000D01*
X69821008Y-101201746D01*
X69770472Y-101035150D01*
X69688405Y-100881614D01*
X69577962Y-100747038D01*
X69443386Y-100636595D01*
X69289850Y-100554528D01*
X69123254Y-100503992D01*
X68950000Y-100486928D01*
X68150000Y-100486928D01*
X67976746Y-100503992D01*
X67810150Y-100554528D01*
X67656614Y-100636595D01*
X67522038Y-100747038D01*
X67411595Y-100881614D01*
X67329528Y-101035150D01*
X67278992Y-101201746D01*
X67261928Y-101375000D01*
X67261928Y-102625000D01*
X67278992Y-102798254D01*
X67329528Y-102964850D01*
X67411595Y-103118386D01*
X67522038Y-103252962D01*
X67656614Y-103363405D01*
X67665000Y-103367888D01*
X67665001Y-104445041D01*
X67639701Y-104482905D01*
X67523989Y-104762257D01*
X67465000Y-105058816D01*
X67465000Y-105361184D01*
X67523989Y-105657743D01*
X67639701Y-105937095D01*
X67807688Y-106188505D01*
X67874127Y-106254944D01*
X67855820Y-106260498D01*
X67745506Y-106319463D01*
X67648815Y-106398815D01*
X67569463Y-106495506D01*
X67510498Y-106605820D01*
X67474188Y-106725518D01*
X67461928Y-106850000D01*
X67461928Y-107210349D01*
X66335000Y-106083422D01*
X66335000Y-103367887D01*
X66343386Y-103363405D01*
X66477962Y-103252962D01*
X66588405Y-103118386D01*
X66670472Y-102964850D01*
X66721008Y-102798254D01*
X66738072Y-102625000D01*
X66738072Y-101375000D01*
X66721008Y-101201746D01*
X66670472Y-101035150D01*
X66588405Y-100881614D01*
X66477962Y-100747038D01*
X66343386Y-100636595D01*
X66189850Y-100554528D01*
X66023254Y-100503992D01*
X65850000Y-100486928D01*
X65188506Y-100486928D01*
X64481524Y-99779946D01*
X64453807Y-99746173D01*
X64348806Y-99660000D01*
X72340000Y-99660000D01*
X72340001Y-122025630D01*
X72340001Y-122025630D02*
X72340000Y-99660000D01*
G04 #@! TA.AperFunction,Conductor*
G36*
X72340001Y-122025630D02*
G01*
X70929326Y-120614956D01*
X70901609Y-120581183D01*
X70766851Y-120470589D01*
X70613105Y-120388411D01*
X70446282Y-120337805D01*
X70316269Y-120325000D01*
X70316261Y-120325000D01*
X70272792Y-120320719D01*
X70253218Y-120322647D01*
X70192312Y-120231495D01*
X69978505Y-120017688D01*
X69727095Y-119849701D01*
X69447743Y-119733989D01*
X69151184Y-119675000D01*
X68848816Y-119675000D01*
X68552257Y-119733989D01*
X68272905Y-119849701D01*
X68021495Y-120017688D01*
X67807688Y-120231495D01*
X67639701Y-120482905D01*
X67523989Y-120762257D01*
X67465000Y-121058816D01*
X67465000Y-121361184D01*
X67523989Y-121657743D01*
X67639701Y-121937095D01*
X67807688Y-122188505D01*
X67874127Y-122254944D01*
X67855820Y-122260498D01*
X67745506Y-122319463D01*
X67648815Y-122398815D01*
X67569463Y-122495506D01*
X67510498Y-122605820D01*
X67474188Y-122725518D01*
X67461928Y-122850000D01*
X67461928Y-124650000D01*
X67474188Y-124774482D01*
X67510498Y-124894180D01*
X67569463Y-125004494D01*
X67648815Y-125101185D01*
X67745506Y-125180537D01*
X67855820Y-125239502D01*
X67975518Y-125275812D01*
X68100000Y-125288072D01*
X69900000Y-125288072D01*
X70024482Y-125275812D01*
X70144180Y-125239502D01*
X70254494Y-125180537D01*
X70351185Y-125101185D01*
X70430537Y-125004494D01*
X70489502Y-124894180D01*
X70525812Y-124774482D01*
X70538072Y-124650000D01*
X70538072Y-122850000D01*
X70525812Y-122725518D01*
X70521057Y-122709844D01*
X70865001Y-123053788D01*
X70865000Y-125633421D01*
X70383422Y-126115000D01*
X69794694Y-126115000D01*
X69770472Y-126035150D01*
X69688405Y-125881614D01*
X69577962Y-125747038D01*
X69443386Y-125636595D01*
X69289850Y-125554528D01*
X69123254Y-125503992D01*
X68950000Y-125486928D01*
X68150000Y-125486928D01*
X67976746Y-125503992D01*
X67810150Y-125554528D01*
X67656614Y-125636595D01*
X67522038Y-125747038D01*
X67411595Y-125881614D01*
X67329528Y-126035150D01*
X67278992Y-126201746D01*
X67261928Y-126375000D01*
X67261928Y-127625000D01*
X67278992Y-127798254D01*
X67329528Y-127964850D01*
X67411595Y-128118386D01*
X67522038Y-128252962D01*
X67656614Y-128363405D01*
X67810150Y-128445472D01*
X67976746Y-128496008D01*
X68150000Y-128513072D01*
X68950000Y-128513072D01*
X69123254Y-128496008D01*
X69289850Y-128445472D01*
X69443386Y-128363405D01*
X69577962Y-128252962D01*
X69688405Y-128118386D01*
X69770472Y-127964850D01*
X69794694Y-127885000D01*
X70706531Y-127885000D01*
X70750000Y-127889281D01*
X70793469Y-127885000D01*
X70793477Y-127885000D01*
X70923490Y-127872195D01*
X71090313Y-127821589D01*
X71244059Y-127739411D01*
X71378817Y-127628817D01*
X71406534Y-127595044D01*
X72340001Y-126661578D01*
X72340001Y-129340000D01*
X61855802Y-129340000D01*
X61909774Y-129303937D01*
X62053937Y-129159774D01*
X62167205Y-128990256D01*
X62245226Y-128801898D01*
X62285000Y-128601939D01*
X62285000Y-128398061D01*
X62245226Y-128198102D01*
X62167205Y-128009744D01*
X62053937Y-127840226D01*
X61909774Y-127696063D01*
X61740256Y-127582795D01*
X61551898Y-127504774D01*
X61351939Y-127465000D01*
X61148061Y-127465000D01*
X60948102Y-127504774D01*
X60759744Y-127582795D01*
X60711546Y-127615000D01*
X47366579Y-127615000D01*
X42156534Y-122404956D01*
X42128817Y-122371183D01*
X41994059Y-122260589D01*
X41840313Y-122178411D01*
X41673490Y-122127805D01*
X41543477Y-122115000D01*
X41543469Y-122115000D01*
X41500000Y-122110719D01*
X41456531Y-122115000D01*
X37864468Y-122115000D01*
X37851185Y-122098815D01*
X37754494Y-122019463D01*
X37738393Y-122010857D01*
X37823000Y-121926250D01*
X37823000Y-121127000D01*
X38077000Y-121127000D01*
X38077000Y-121926250D01*
X38235750Y-122085000D01*
X38350000Y-122088072D01*
X38474482Y-122075812D01*
X38594180Y-122039502D01*
X38704494Y-121980537D01*
X38801185Y-121901185D01*
X38880537Y-121804494D01*
X38939502Y-121694180D01*
X38975812Y-121574482D01*
X38988072Y-121450000D01*
X38985000Y-121285750D01*
X38826250Y-121127000D01*
X38077000Y-121127000D01*
X37823000Y-121127000D01*
X37803000Y-121127000D01*
X37803000Y-120873000D01*
X37823000Y-120873000D01*
X37823000Y-120073750D01*
X38077000Y-120073750D01*
X38077000Y-120873000D01*
X38826250Y-120873000D01*
X38985000Y-120714250D01*
X38988072Y-120550000D01*
X38975812Y-120425518D01*
X38939502Y-120305820D01*
X38880537Y-120195506D01*
X38801185Y-120098815D01*
X38704494Y-120019463D01*
X38594180Y-119960498D01*
X38474482Y-119924188D01*
X38350000Y-119911928D01*
X38235750Y-119915000D01*
X38077000Y-120073750D01*
X37823000Y-120073750D01*
X37664250Y-119915000D01*
X37550000Y-119911928D01*
X37425518Y-119924188D01*
X37305820Y-119960498D01*
X37195506Y-120019463D01*
X37098815Y-120098815D01*
X37019463Y-120195506D01*
X37000000Y-120231918D01*
X36980537Y-120195506D01*
X36935000Y-120140019D01*
X36935000Y-118267704D01*
X36952963Y-118252962D01*
X37063406Y-118118386D01*
X37145473Y-117964850D01*
X37172728Y-117875000D01*
X37736929Y-117875000D01*
X37749189Y-117999482D01*
X37785499Y-118119180D01*
X37844464Y-118229494D01*
X37923816Y-118326185D01*
X38020507Y-118405537D01*
X38130821Y-118464502D01*
X38250519Y-118500812D01*
X38375001Y-118513072D01*
X38739251Y-118510000D01*
X38898001Y-118351250D01*
X38898001Y-117127000D01*
X39152001Y-117127000D01*
X39152001Y-118351250D01*
X39310751Y-118510000D01*
X39675001Y-118513072D01*
X39799483Y-118500812D01*
X39919181Y-118464502D01*
X40029495Y-118405537D01*
X40126186Y-118326185D01*
X40205538Y-118229494D01*
X40264503Y-118119180D01*
X40300813Y-117999482D01*
X40313073Y-117875000D01*
X40310001Y-117285750D01*
X40151251Y-117127000D01*
X39152001Y-117127000D01*
X38898001Y-117127000D01*
X37898751Y-117127000D01*
X37740001Y-117285750D01*
X37736929Y-117875000D01*
X37172728Y-117875000D01*
X37196009Y-117798254D01*
X37213073Y-117625000D01*
X37213073Y-116375000D01*
X37196009Y-116201746D01*
X37172729Y-116125000D01*
X37736929Y-116125000D01*
X37740001Y-116714250D01*
X37898751Y-116873000D01*
X38898001Y-116873000D01*
X38898001Y-115648750D01*
X39152001Y-115648750D01*
X39152001Y-116873000D01*
X40151251Y-116873000D01*
X40310001Y-116714250D01*
X40313073Y-116125000D01*
X40300813Y-116000518D01*
X40264503Y-115880820D01*
X40205538Y-115770506D01*
X40126186Y-115673815D01*
X40029495Y-115594463D01*
X39919181Y-115535498D01*
X39799483Y-115499188D01*
X39675001Y-115486928D01*
X39310751Y-115490000D01*
X39152001Y-115648750D01*
X38898001Y-115648750D01*
X38739251Y-115490000D01*
X38375001Y-115486928D01*
X38250519Y-115499188D01*
X38130821Y-115535498D01*
X38020507Y-115594463D01*
X37923816Y-115673815D01*
X37844464Y-115770506D01*
X37785499Y-115880820D01*
X37749189Y-116000518D01*
X37736929Y-116125000D01*
X37172729Y-116125000D01*
X37145473Y-116035150D01*
X37063406Y-115881614D01*
X36952963Y-115747038D01*
X36818387Y-115636595D01*
X36664851Y-115554528D01*
X36498255Y-115503992D01*
X36325001Y-115486928D01*
X35525001Y-115486928D01*
X35351747Y-115503992D01*
X35185151Y-115554528D01*
X35031615Y-115636595D01*
X34897039Y-115747038D01*
X34786596Y-115881614D01*
X34704529Y-116035150D01*
X34680307Y-116115000D01*
X34635000Y-116115000D01*
X34635000Y-112543469D01*
X34639281Y-112500000D01*
X34635000Y-112456531D01*
X34635000Y-112456523D01*
X34622195Y-112326510D01*
X34602198Y-112260589D01*
X34571589Y-112159686D01*
X34489411Y-112005941D01*
X34406532Y-111904953D01*
X34406530Y-111904951D01*
X34378817Y-111871183D01*
X34345050Y-111843471D01*
X33406534Y-110904956D01*
X33378817Y-110871183D01*
X33244059Y-110760589D01*
X33090313Y-110678411D01*
X32923490Y-110627805D01*
X32793477Y-110615000D01*
X32793469Y-110615000D01*
X32750000Y-110610719D01*
X32706531Y-110615000D01*
X30819759Y-110615000D01*
X30680134Y-110444866D01*
X30454014Y-110259294D01*
X30436626Y-110250000D01*
X30454014Y-110240706D01*
X30680134Y-110055134D01*
X30819759Y-109885000D01*
X32706531Y-109885000D01*
X32750000Y-109889281D01*
X32793469Y-109885000D01*
X32793477Y-109885000D01*
X32923490Y-109872195D01*
X33090313Y-109821589D01*
X33244059Y-109739411D01*
X33378817Y-109628817D01*
X33406534Y-109595044D01*
X34116579Y-108885000D01*
X34680307Y-108885000D01*
X34704529Y-108964850D01*
X34786596Y-109118386D01*
X34897039Y-109252962D01*
X35031615Y-109363405D01*
X35165001Y-109434701D01*
X35165000Y-110140018D01*
X35119463Y-110195506D01*
X35060498Y-110305820D01*
X35024188Y-110425518D01*
X35011928Y-110550000D01*
X35011928Y-111450000D01*
X35024188Y-111574482D01*
X35060498Y-111694180D01*
X35119463Y-111804494D01*
X35198815Y-111901185D01*
X35295506Y-111980537D01*
X35405820Y-112039502D01*
X35525518Y-112075812D01*
X35650000Y-112088072D01*
X36161905Y-112088072D01*
X36148815Y-112098815D01*
X36069463Y-112195506D01*
X36010498Y-112305820D01*
X35974188Y-112425518D01*
X35961928Y-112550000D01*
X35961928Y-113450000D01*
X35974188Y-113574482D01*
X36010498Y-113694180D01*
X36069463Y-113804494D01*
X36148815Y-113901185D01*
X36245506Y-113980537D01*
X36355820Y-114039502D01*
X36475518Y-114075812D01*
X36600000Y-114088072D01*
X37400000Y-114088072D01*
X37524482Y-114075812D01*
X37644180Y-114039502D01*
X37754494Y-113980537D01*
X37807953Y-113936664D01*
X46842134Y-113936664D01*
X46842134Y-115063336D01*
X47018384Y-116176138D01*
X47366545Y-117247667D01*
X47878044Y-118251540D01*
X48540285Y-119163037D01*
X49336963Y-119959715D01*
X50248460Y-120621956D01*
X51252333Y-121133455D01*
X52323862Y-121481616D01*
X53436664Y-121657866D01*
X54563336Y-121657866D01*
X55676138Y-121481616D01*
X56747667Y-121133455D01*
X57751540Y-120621956D01*
X58663037Y-119959715D01*
X59459715Y-119163037D01*
X60121956Y-118251540D01*
X60633455Y-117247667D01*
X60981616Y-116176138D01*
X61157866Y-115063336D01*
X61157866Y-113936664D01*
X60981616Y-112823862D01*
X60633455Y-111752333D01*
X60121956Y-110748460D01*
X59459715Y-109836963D01*
X58663037Y-109040285D01*
X57751540Y-108378044D01*
X56747667Y-107866545D01*
X55676138Y-107518384D01*
X54563336Y-107342134D01*
X53436664Y-107342134D01*
X52323862Y-107518384D01*
X51252333Y-107866545D01*
X50248460Y-108378044D01*
X49336963Y-109040285D01*
X48540285Y-109836963D01*
X47878044Y-110748460D01*
X47366545Y-111752333D01*
X47018384Y-112823862D01*
X46842134Y-113936664D01*
X37807953Y-113936664D01*
X37851185Y-113901185D01*
X37864468Y-113885000D01*
X38106533Y-113885000D01*
X38150002Y-113889281D01*
X38193471Y-113885000D01*
X38193479Y-113885000D01*
X38323492Y-113872195D01*
X38490315Y-113821589D01*
X38644061Y-113739411D01*
X38778819Y-113628817D01*
X38806536Y-113595044D01*
X40595050Y-111806531D01*
X40628817Y-111778819D01*
X40739411Y-111644061D01*
X40821589Y-111490315D01*
X40872195Y-111323492D01*
X40874029Y-111304874D01*
X40917205Y-111240256D01*
X40995226Y-111051898D01*
X41035000Y-110851939D01*
X41035000Y-110648061D01*
X40995226Y-110448102D01*
X40917205Y-110259744D01*
X40803937Y-110090226D01*
X40659774Y-109946063D01*
X40490256Y-109832795D01*
X40301898Y-109754774D01*
X40101939Y-109715000D01*
X39898061Y-109715000D01*
X39698102Y-109754774D01*
X39509744Y-109832795D01*
X39340226Y-109946063D01*
X39196063Y-110090226D01*
X39082795Y-110259744D01*
X39004774Y-110448102D01*
X38986891Y-110538007D01*
X38975812Y-110425518D01*
X38939502Y-110305820D01*
X38880537Y-110195506D01*
X38801185Y-110098815D01*
X38704494Y-110019463D01*
X38594180Y-109960498D01*
X38474482Y-109924188D01*
X38350000Y-109911928D01*
X38235750Y-109915000D01*
X38077000Y-110073750D01*
X38077000Y-110873000D01*
X38097000Y-110873000D01*
X38097000Y-111127000D01*
X38077000Y-111127000D01*
X38077000Y-111147000D01*
X37823000Y-111147000D01*
X37823000Y-111127000D01*
X37803000Y-111127000D01*
X37803000Y-110873000D01*
X37823000Y-110873000D01*
X37823000Y-110073750D01*
X37664250Y-109915000D01*
X37550000Y-109911928D01*
X37425518Y-109924188D01*
X37305820Y-109960498D01*
X37195506Y-110019463D01*
X37098815Y-110098815D01*
X37019463Y-110195506D01*
X37000000Y-110231918D01*
X36980537Y-110195506D01*
X36935000Y-110140019D01*
X36935000Y-109267704D01*
X36952963Y-109252962D01*
X37063406Y-109118386D01*
X37145473Y-108964850D01*
X37172728Y-108875000D01*
X37736929Y-108875000D01*
X37749189Y-108999482D01*
X37785499Y-109119180D01*
X37844464Y-109229494D01*
X37923816Y-109326185D01*
X38020507Y-109405537D01*
X38130821Y-109464502D01*
X38250519Y-109500812D01*
X38375001Y-109513072D01*
X38739251Y-109510000D01*
X38898001Y-109351250D01*
X38898001Y-108127000D01*
X39152001Y-108127000D01*
X39152001Y-109351250D01*
X39310751Y-109510000D01*
X39675001Y-109513072D01*
X39799483Y-109500812D01*
X39919181Y-109464502D01*
X40029495Y-109405537D01*
X40126186Y-109326185D01*
X40205538Y-109229494D01*
X40264503Y-109119180D01*
X40300813Y-108999482D01*
X40313073Y-108875000D01*
X40310001Y-108285750D01*
X40151251Y-108127000D01*
X39152001Y-108127000D01*
X38898001Y-108127000D01*
X37898751Y-108127000D01*
X37740001Y-108285750D01*
X37736929Y-108875000D01*
X37172728Y-108875000D01*
X37196009Y-108798254D01*
X37213073Y-108625000D01*
X37213073Y-107375000D01*
X37196009Y-107201746D01*
X37172729Y-107125000D01*
X37736929Y-107125000D01*
X37740001Y-107714250D01*
X37898751Y-107873000D01*
X38898001Y-107873000D01*
X38898001Y-106648750D01*
X39152001Y-106648750D01*
X39152001Y-107873000D01*
X40151251Y-107873000D01*
X40310001Y-107714250D01*
X40313073Y-107125000D01*
X40300813Y-107000518D01*
X40264503Y-106880820D01*
X40205538Y-106770506D01*
X40126186Y-106673815D01*
X40029495Y-106594463D01*
X39919181Y-106535498D01*
X39799483Y-106499188D01*
X39675001Y-106486928D01*
X39310751Y-106490000D01*
X39152001Y-106648750D01*
X38898001Y-106648750D01*
X38739251Y-106490000D01*
X38375001Y-106486928D01*
X38250519Y-106499188D01*
X38130821Y-106535498D01*
X38020507Y-106594463D01*
X37923816Y-106673815D01*
X37844464Y-106770506D01*
X37785499Y-106880820D01*
X37749189Y-107000518D01*
X37736929Y-107125000D01*
X37172729Y-107125000D01*
X37145473Y-107035150D01*
X37063406Y-106881614D01*
X36952963Y-106747038D01*
X36818387Y-106636595D01*
X36664851Y-106554528D01*
X36498255Y-106503992D01*
X36325001Y-106486928D01*
X35525001Y-106486928D01*
X35351747Y-106503992D01*
X35185151Y-106554528D01*
X35031615Y-106636595D01*
X34897039Y-106747038D01*
X34786596Y-106881614D01*
X34704529Y-107035150D01*
X34680307Y-107115000D01*
X33793469Y-107115000D01*
X33750000Y-107110719D01*
X33706531Y-107115000D01*
X33706523Y-107115000D01*
X33576510Y-107127805D01*
X33409686Y-107178411D01*
X33255941Y-107260589D01*
X33154953Y-107343468D01*
X33154951Y-107343470D01*
X33121183Y-107371183D01*
X33093470Y-107404951D01*
X32383422Y-108115000D01*
X30819759Y-108115000D01*
X30680134Y-107944866D01*
X30454014Y-107759294D01*
X30436626Y-107750000D01*
X30454014Y-107740706D01*
X30680134Y-107555134D01*
X30819759Y-107385000D01*
X32456531Y-107385000D01*
X32500000Y-107389281D01*
X32543469Y-107385000D01*
X32543477Y-107385000D01*
X32673490Y-107372195D01*
X32840313Y-107321589D01*
X32994059Y-107239411D01*
X33128817Y-107128817D01*
X33156534Y-107095044D01*
X34816579Y-105435000D01*
X35632113Y-105435000D01*
X35636595Y-105443386D01*
X35747038Y-105577962D01*
X35881614Y-105688405D01*
X36035150Y-105770472D01*
X36201746Y-105821008D01*
X36375000Y-105838072D01*
X37625000Y-105838072D01*
X37798254Y-105821008D01*
X37964850Y-105770472D01*
X38118386Y-105688405D01*
X38252962Y-105577962D01*
X38363405Y-105443386D01*
X38445472Y-105289850D01*
X38496008Y-105123254D01*
X38513072Y-104950000D01*
X38513072Y-104150000D01*
X38496008Y-103976746D01*
X38445472Y-103810150D01*
X38363405Y-103656614D01*
X38252962Y-103522038D01*
X38118386Y-103411595D01*
X37964850Y-103329528D01*
X37798254Y-103278992D01*
X37625000Y-103261928D01*
X36375000Y-103261928D01*
X36201746Y-103278992D01*
X36035150Y-103329528D01*
X35881614Y-103411595D01*
X35747038Y-103522038D01*
X35636595Y-103656614D01*
X35632113Y-103665000D01*
X34493465Y-103665000D01*
X34449999Y-103660719D01*
X34406533Y-103665000D01*
X34406523Y-103665000D01*
X34276510Y-103677805D01*
X34109687Y-103728411D01*
X33955941Y-103810589D01*
X33955939Y-103810590D01*
X33955940Y-103810590D01*
X33854953Y-103893468D01*
X33854951Y-103893470D01*
X33821183Y-103921183D01*
X33793470Y-103954951D01*
X32133422Y-105615000D01*
X30819759Y-105615000D01*
X30680134Y-105444866D01*
X30616663Y-105392777D01*
X30718386Y-105338405D01*
X30852962Y-105227962D01*
X30963405Y-105093386D01*
X31045472Y-104939850D01*
X31062110Y-104885000D01*
X31956531Y-104885000D01*
X32000000Y-104889281D01*
X32043469Y-104885000D01*
X32043477Y-104885000D01*
X32173490Y-104872195D01*
X32340313Y-104821589D01*
X32494059Y-104739411D01*
X32628817Y-104628817D01*
X32656534Y-104595044D01*
X34916579Y-102335000D01*
X35632113Y-102335000D01*
X35636595Y-102343386D01*
X35747038Y-102477962D01*
X35881614Y-102588405D01*
X36035150Y-102670472D01*
X36201746Y-102721008D01*
X36375000Y-102738072D01*
X37625000Y-102738072D01*
X37798254Y-102721008D01*
X37964850Y-102670472D01*
X38118386Y-102588405D01*
X38252962Y-102477962D01*
X38363405Y-102343386D01*
X38367887Y-102335000D01*
X45006531Y-102335000D01*
X45050000Y-102339281D01*
X45093469Y-102335000D01*
X45093477Y-102335000D01*
X45223490Y-102322195D01*
X45390313Y-102271589D01*
X45544059Y-102189411D01*
X45678817Y-102078817D01*
X45706534Y-102045044D01*
X46491589Y-101259990D01*
X63458412Y-101259990D01*
X64161928Y-101963507D01*
X64161928Y-102625000D01*
X64178992Y-102798254D01*
X64229528Y-102964850D01*
X64311595Y-103118386D01*
X64422038Y-103252962D01*
X64556614Y-103363405D01*
X64565000Y-103367888D01*
X64565001Y-106406521D01*
X64560719Y-106450000D01*
X64577805Y-106623490D01*
X64628412Y-106790313D01*
X64710590Y-106944059D01*
X64793468Y-107045046D01*
X64793471Y-107045049D01*
X64821184Y-107078817D01*
X64854951Y-107106529D01*
X66115000Y-108366579D01*
X66115001Y-109206522D01*
X66110719Y-109250000D01*
X66127805Y-109423490D01*
X66178412Y-109590313D01*
X66260590Y-109744059D01*
X66343468Y-109845046D01*
X66343471Y-109845049D01*
X66371184Y-109878817D01*
X66404951Y-109906529D01*
X67115000Y-110616579D01*
X67115001Y-118383420D01*
X65404956Y-120093466D01*
X65371183Y-120121183D01*
X65260589Y-120255942D01*
X65178411Y-120409688D01*
X65127805Y-120576511D01*
X65115000Y-120706524D01*
X65115000Y-120706531D01*
X65110719Y-120750000D01*
X65115000Y-120793469D01*
X65115001Y-125486928D01*
X65050000Y-125486928D01*
X64876746Y-125503992D01*
X64710150Y-125554528D01*
X64556614Y-125636595D01*
X64422038Y-125747038D01*
X64311595Y-125881614D01*
X64229528Y-126035150D01*
X64178992Y-126201746D01*
X64161928Y-126375000D01*
X64161928Y-127625000D01*
X64178992Y-127798254D01*
X64229528Y-127964850D01*
X64311595Y-128118386D01*
X64422038Y-128252962D01*
X64556614Y-128363405D01*
X64710150Y-128445472D01*
X64876746Y-128496008D01*
X65050000Y-128513072D01*
X65850000Y-128513072D01*
X66023254Y-128496008D01*
X66189850Y-128445472D01*
X66343386Y-128363405D01*
X66477962Y-128252962D01*
X66588405Y-128118386D01*
X66670472Y-127964850D01*
X66721008Y-127798254D01*
X66738072Y-127625000D01*
X66738072Y-126945691D01*
X66739411Y-126944059D01*
X66821589Y-126790313D01*
X66872195Y-126623490D01*
X66885000Y-126493477D01*
X66885000Y-126493467D01*
X66889281Y-126450001D01*
X66885000Y-126406535D01*
X66885000Y-121116578D01*
X68595049Y-119406530D01*
X68628817Y-119378817D01*
X68739411Y-119244059D01*
X68821589Y-119090313D01*
X68872195Y-118923490D01*
X68885000Y-118793477D01*
X68885000Y-118793467D01*
X68889281Y-118750001D01*
X68885000Y-118706535D01*
X68885000Y-110293469D01*
X68889281Y-110250000D01*
X68885000Y-110206531D01*
X68885000Y-110206523D01*
X68872195Y-110076510D01*
X68852198Y-110010589D01*
X68821589Y-109909686D01*
X68739411Y-109755941D01*
X68656532Y-109654953D01*
X68656530Y-109654951D01*
X68628817Y-109621183D01*
X68595050Y-109593471D01*
X68289651Y-109288072D01*
X69286493Y-109288072D01*
X69615001Y-109616580D01*
X69615000Y-111711545D01*
X69582795Y-111759744D01*
X69504774Y-111948102D01*
X69465000Y-112148061D01*
X69465000Y-112351939D01*
X69504774Y-112551898D01*
X69582795Y-112740256D01*
X69696063Y-112909774D01*
X69840226Y-113053937D01*
X70009744Y-113167205D01*
X70198102Y-113245226D01*
X70398061Y-113285000D01*
X70601939Y-113285000D01*
X70801898Y-113245226D01*
X70990256Y-113167205D01*
X71159774Y-113053937D01*
X71303937Y-112909774D01*
X71417205Y-112740256D01*
X71495226Y-112551898D01*
X71535000Y-112351939D01*
X71535000Y-112148061D01*
X71495226Y-111948102D01*
X71417205Y-111759744D01*
X71385000Y-111711546D01*
X71385000Y-109293465D01*
X71389281Y-109249999D01*
X71385000Y-109206533D01*
X71385000Y-109206523D01*
X71372195Y-109076510D01*
X71321589Y-108909687D01*
X71239411Y-108755941D01*
X71200796Y-108708889D01*
X71156532Y-108654953D01*
X71156530Y-108654951D01*
X71128817Y-108621183D01*
X71095049Y-108593470D01*
X70538072Y-108036493D01*
X70538072Y-106850000D01*
X70525812Y-106725518D01*
X70489502Y-106605820D01*
X70430537Y-106495506D01*
X70351185Y-106398815D01*
X70254494Y-106319463D01*
X70144180Y-106260498D01*
X70125873Y-106254944D01*
X70192312Y-106188505D01*
X70360299Y-105937095D01*
X70476011Y-105657743D01*
X70535000Y-105361184D01*
X70535000Y-105058816D01*
X70476011Y-104762257D01*
X70360299Y-104482905D01*
X70192312Y-104231495D01*
X69978505Y-104017688D01*
X69727095Y-103849701D01*
X69447743Y-103733989D01*
X69435000Y-103731454D01*
X69435000Y-103367887D01*
X69443386Y-103363405D01*
X69577962Y-103252962D01*
X69688405Y-103118386D01*
X69770472Y-102964850D01*
X69821008Y-102798254D01*
X69838072Y-102625000D01*
X69838072Y-101375000D01*
X69821008Y-101201746D01*
X69770472Y-101035150D01*
X69688405Y-100881614D01*
X69577962Y-100747038D01*
X69443386Y-100636595D01*
X69289850Y-100554528D01*
X69123254Y-100503992D01*
X68950000Y-100486928D01*
X68150000Y-100486928D01*
X67976746Y-100503992D01*
X67810150Y-100554528D01*
X67656614Y-100636595D01*
X67522038Y-100747038D01*
X67411595Y-100881614D01*
X67329528Y-101035150D01*
X67278992Y-101201746D01*
X67261928Y-101375000D01*
X67261928Y-102625000D01*
X67278992Y-102798254D01*
X67329528Y-102964850D01*
X67411595Y-103118386D01*
X67522038Y-103252962D01*
X67656614Y-103363405D01*
X67665000Y-103367888D01*
X67665001Y-104445041D01*
X67639701Y-104482905D01*
X67523989Y-104762257D01*
X67465000Y-105058816D01*
X67465000Y-105361184D01*
X67523989Y-105657743D01*
X67639701Y-105937095D01*
X67807688Y-106188505D01*
X67874127Y-106254944D01*
X67855820Y-106260498D01*
X67745506Y-106319463D01*
X67648815Y-106398815D01*
X67569463Y-106495506D01*
X67510498Y-106605820D01*
X67474188Y-106725518D01*
X67461928Y-106850000D01*
X67461928Y-107210349D01*
X66335000Y-106083422D01*
X66335000Y-103367887D01*
X66343386Y-103363405D01*
X66477962Y-103252962D01*
X66588405Y-103118386D01*
X66670472Y-102964850D01*
X66721008Y-102798254D01*
X66738072Y-102625000D01*
X66738072Y-101375000D01*
X66721008Y-101201746D01*
X66670472Y-101035150D01*
X66588405Y-100881614D01*
X66477962Y-100747038D01*
X66343386Y-100636595D01*
X66189850Y-100554528D01*
X66023254Y-100503992D01*
X65850000Y-100486928D01*
X65188506Y-100486928D01*
X64481524Y-99779946D01*
X64453807Y-99746173D01*
X64348806Y-99660000D01*
X72340000Y-99660000D01*
X72340001Y-122025630D01*
G37*
G04 #@! TD.AperFunction*
X28319866Y-107555134D02*
X28545986Y-107740706D01*
X28563374Y-107750000D01*
X28545986Y-107759294D01*
X28319866Y-107944866D01*
X28134294Y-108170986D01*
X27996401Y-108428966D01*
X27911487Y-108708889D01*
X27882815Y-109000000D01*
X27911487Y-109291111D01*
X27996401Y-109571034D01*
X28134294Y-109829014D01*
X28319866Y-110055134D01*
X28545986Y-110240706D01*
X28563374Y-110250000D01*
X28545986Y-110259294D01*
X28319866Y-110444866D01*
X28134294Y-110670986D01*
X27996401Y-110928966D01*
X27911487Y-111208889D01*
X27882815Y-111500000D01*
X27911487Y-111791111D01*
X27996401Y-112071034D01*
X28134294Y-112329014D01*
X28319866Y-112555134D01*
X28545986Y-112740706D01*
X28571722Y-112754462D01*
X28365571Y-112910951D01*
X28172504Y-113128807D01*
X28025648Y-113380142D01*
X27933524Y-113643110D01*
X28054845Y-113873000D01*
X29373000Y-113873000D01*
X29373000Y-113853000D01*
X29627000Y-113853000D01*
X29627000Y-113873000D01*
X30945155Y-113873000D01*
X31066476Y-113643110D01*
X30974352Y-113380142D01*
X30827496Y-113128807D01*
X30634429Y-112910951D01*
X30428278Y-112754462D01*
X30454014Y-112740706D01*
X30680134Y-112555134D01*
X30819759Y-112385000D01*
X32383422Y-112385000D01*
X32865000Y-112866579D01*
X32865001Y-116456521D01*
X32860719Y-116500000D01*
X32877805Y-116673490D01*
X32928412Y-116840313D01*
X33010590Y-116994059D01*
X33093468Y-117095046D01*
X33093471Y-117095049D01*
X33121184Y-117128817D01*
X33154952Y-117156530D01*
X33593466Y-117595044D01*
X33621183Y-117628817D01*
X33755941Y-117739411D01*
X33909687Y-117821589D01*
X34076510Y-117872195D01*
X34206523Y-117885000D01*
X34206531Y-117885000D01*
X34250000Y-117889281D01*
X34293469Y-117885000D01*
X34680307Y-117885000D01*
X34704529Y-117964850D01*
X34786596Y-118118386D01*
X34897039Y-118252962D01*
X35031615Y-118363405D01*
X35165001Y-118434701D01*
X35165000Y-120140019D01*
X35119463Y-120195506D01*
X35060498Y-120305820D01*
X35024188Y-120425518D01*
X35011928Y-120550000D01*
X35011928Y-121450000D01*
X35024188Y-121574482D01*
X35060498Y-121694180D01*
X35119463Y-121804494D01*
X35198815Y-121901185D01*
X35295506Y-121980537D01*
X35405820Y-122039502D01*
X35525518Y-122075812D01*
X35650000Y-122088072D01*
X36161905Y-122088072D01*
X36148815Y-122098815D01*
X36069463Y-122195506D01*
X36010498Y-122305820D01*
X35974188Y-122425518D01*
X35961928Y-122550000D01*
X35961928Y-123450000D01*
X35974188Y-123574482D01*
X36010498Y-123694180D01*
X36069463Y-123804494D01*
X36148815Y-123901185D01*
X36245506Y-123980537D01*
X36355820Y-124039502D01*
X36475518Y-124075812D01*
X36600000Y-124088072D01*
X37400000Y-124088072D01*
X37524482Y-124075812D01*
X37644180Y-124039502D01*
X37754494Y-123980537D01*
X37851185Y-123901185D01*
X37864468Y-123885000D01*
X41133422Y-123885000D01*
X46343470Y-129095049D01*
X46371183Y-129128817D01*
X46404951Y-129156530D01*
X46404953Y-129156532D01*
X46505941Y-129239411D01*
X46659686Y-129321589D01*
X46720378Y-129340000D01*
X25660000Y-129340000D01*
X25660000Y-125606890D01*
X27908524Y-125606890D01*
X27910446Y-125619261D01*
X28010146Y-125893009D01*
X28161336Y-126142046D01*
X28358205Y-126356802D01*
X28593188Y-126529025D01*
X28857255Y-126652096D01*
X29140258Y-126721285D01*
X29373000Y-126577232D01*
X29373000Y-125377000D01*
X29627000Y-125377000D01*
X29627000Y-126577232D01*
X29859742Y-126721285D01*
X30142745Y-126652096D01*
X30406812Y-126529025D01*
X30641795Y-126356802D01*
X30838664Y-126142046D01*
X30989854Y-125893009D01*
X31089554Y-125619261D01*
X31091476Y-125606890D01*
X30970155Y-125377000D01*
X29627000Y-125377000D01*
X29373000Y-125377000D01*
X28029845Y-125377000D01*
X27908524Y-125606890D01*
X25660000Y-125606890D01*
X25660000Y-117779620D01*
X25678411Y-117840312D01*
X25760589Y-117994058D01*
X25871183Y-118128817D01*
X25904956Y-118156534D01*
X28615001Y-120866580D01*
X28615001Y-121275224D01*
X28576746Y-121278992D01*
X28410150Y-121329528D01*
X28256614Y-121411595D01*
X28122038Y-121522038D01*
X28011595Y-121656614D01*
X27929528Y-121810150D01*
X27878992Y-121976746D01*
X27861928Y-122150000D01*
X27861928Y-123350000D01*
X27878992Y-123523254D01*
X27929528Y-123689850D01*
X28011595Y-123843386D01*
X28122038Y-123977962D01*
X28256614Y-124088405D01*
X28358593Y-124142914D01*
X28358205Y-124143198D01*
X28161336Y-124357954D01*
X28010146Y-124606991D01*
X27910446Y-124880739D01*
X27908524Y-124893110D01*
X28029845Y-125123000D01*
X29373000Y-125123000D01*
X29373000Y-125103000D01*
X29627000Y-125103000D01*
X29627000Y-125123000D01*
X30970155Y-125123000D01*
X31091476Y-124893110D01*
X31089554Y-124880739D01*
X30989854Y-124606991D01*
X30838664Y-124357954D01*
X30641795Y-124143198D01*
X30641407Y-124142914D01*
X30743386Y-124088405D01*
X30877962Y-123977962D01*
X30988405Y-123843386D01*
X31070472Y-123689850D01*
X31121008Y-123523254D01*
X31138072Y-123350000D01*
X31138072Y-122150000D01*
X31121008Y-121976746D01*
X31070472Y-121810150D01*
X30988405Y-121656614D01*
X30877962Y-121522038D01*
X30743386Y-121411595D01*
X30589850Y-121329528D01*
X30423254Y-121278992D01*
X30385000Y-121275224D01*
X30385000Y-120543469D01*
X30389281Y-120500000D01*
X30385000Y-120456531D01*
X30385000Y-120456523D01*
X30372195Y-120326510D01*
X30332455Y-120195506D01*
X30321589Y-120159686D01*
X30239411Y-120005941D01*
X30156532Y-119904953D01*
X30156530Y-119904951D01*
X30128817Y-119871183D01*
X30095049Y-119843470D01*
X27385000Y-117133422D01*
X27385000Y-114356890D01*
X27933524Y-114356890D01*
X28025648Y-114619858D01*
X28172504Y-114871193D01*
X28365571Y-115089049D01*
X28597430Y-115265053D01*
X28859170Y-115392442D01*
X29140733Y-115466320D01*
X29373000Y-115326165D01*
X29373000Y-114127000D01*
X29627000Y-114127000D01*
X29627000Y-115326165D01*
X29859267Y-115466320D01*
X30140830Y-115392442D01*
X30402570Y-115265053D01*
X30634429Y-115089049D01*
X30827496Y-114871193D01*
X30974352Y-114619858D01*
X31066476Y-114356890D01*
X30945155Y-114127000D01*
X29627000Y-114127000D01*
X29373000Y-114127000D01*
X28054845Y-114127000D01*
X27933524Y-114356890D01*
X27385000Y-114356890D01*
X27385000Y-108116578D01*
X28116579Y-107385000D01*
X28180241Y-107385000D01*
X28319866Y-107555134D01*
X28319866Y-107555134D02*
X28180241Y-107385000D01*
G04 #@! TA.AperFunction,Conductor*
G36*
X28319866Y-107555134D02*
G01*
X28545986Y-107740706D01*
X28563374Y-107750000D01*
X28545986Y-107759294D01*
X28319866Y-107944866D01*
X28134294Y-108170986D01*
X27996401Y-108428966D01*
X27911487Y-108708889D01*
X27882815Y-109000000D01*
X27911487Y-109291111D01*
X27996401Y-109571034D01*
X28134294Y-109829014D01*
X28319866Y-110055134D01*
X28545986Y-110240706D01*
X28563374Y-110250000D01*
X28545986Y-110259294D01*
X28319866Y-110444866D01*
X28134294Y-110670986D01*
X27996401Y-110928966D01*
X27911487Y-111208889D01*
X27882815Y-111500000D01*
X27911487Y-111791111D01*
X27996401Y-112071034D01*
X28134294Y-112329014D01*
X28319866Y-112555134D01*
X28545986Y-112740706D01*
X28571722Y-112754462D01*
X28365571Y-112910951D01*
X28172504Y-113128807D01*
X28025648Y-113380142D01*
X27933524Y-113643110D01*
X28054845Y-113873000D01*
X29373000Y-113873000D01*
X29373000Y-113853000D01*
X29627000Y-113853000D01*
X29627000Y-113873000D01*
X30945155Y-113873000D01*
X31066476Y-113643110D01*
X30974352Y-113380142D01*
X30827496Y-113128807D01*
X30634429Y-112910951D01*
X30428278Y-112754462D01*
X30454014Y-112740706D01*
X30680134Y-112555134D01*
X30819759Y-112385000D01*
X32383422Y-112385000D01*
X32865000Y-112866579D01*
X32865001Y-116456521D01*
X32860719Y-116500000D01*
X32877805Y-116673490D01*
X32928412Y-116840313D01*
X33010590Y-116994059D01*
X33093468Y-117095046D01*
X33093471Y-117095049D01*
X33121184Y-117128817D01*
X33154952Y-117156530D01*
X33593466Y-117595044D01*
X33621183Y-117628817D01*
X33755941Y-117739411D01*
X33909687Y-117821589D01*
X34076510Y-117872195D01*
X34206523Y-117885000D01*
X34206531Y-117885000D01*
X34250000Y-117889281D01*
X34293469Y-117885000D01*
X34680307Y-117885000D01*
X34704529Y-117964850D01*
X34786596Y-118118386D01*
X34897039Y-118252962D01*
X35031615Y-118363405D01*
X35165001Y-118434701D01*
X35165000Y-120140019D01*
X35119463Y-120195506D01*
X35060498Y-120305820D01*
X35024188Y-120425518D01*
X35011928Y-120550000D01*
X35011928Y-121450000D01*
X35024188Y-121574482D01*
X35060498Y-121694180D01*
X35119463Y-121804494D01*
X35198815Y-121901185D01*
X35295506Y-121980537D01*
X35405820Y-122039502D01*
X35525518Y-122075812D01*
X35650000Y-122088072D01*
X36161905Y-122088072D01*
X36148815Y-122098815D01*
X36069463Y-122195506D01*
X36010498Y-122305820D01*
X35974188Y-122425518D01*
X35961928Y-122550000D01*
X35961928Y-123450000D01*
X35974188Y-123574482D01*
X36010498Y-123694180D01*
X36069463Y-123804494D01*
X36148815Y-123901185D01*
X36245506Y-123980537D01*
X36355820Y-124039502D01*
X36475518Y-124075812D01*
X36600000Y-124088072D01*
X37400000Y-124088072D01*
X37524482Y-124075812D01*
X37644180Y-124039502D01*
X37754494Y-123980537D01*
X37851185Y-123901185D01*
X37864468Y-123885000D01*
X41133422Y-123885000D01*
X46343470Y-129095049D01*
X46371183Y-129128817D01*
X46404951Y-129156530D01*
X46404953Y-129156532D01*
X46505941Y-129239411D01*
X46659686Y-129321589D01*
X46720378Y-129340000D01*
X25660000Y-129340000D01*
X25660000Y-125606890D01*
X27908524Y-125606890D01*
X27910446Y-125619261D01*
X28010146Y-125893009D01*
X28161336Y-126142046D01*
X28358205Y-126356802D01*
X28593188Y-126529025D01*
X28857255Y-126652096D01*
X29140258Y-126721285D01*
X29373000Y-126577232D01*
X29373000Y-125377000D01*
X29627000Y-125377000D01*
X29627000Y-126577232D01*
X29859742Y-126721285D01*
X30142745Y-126652096D01*
X30406812Y-126529025D01*
X30641795Y-126356802D01*
X30838664Y-126142046D01*
X30989854Y-125893009D01*
X31089554Y-125619261D01*
X31091476Y-125606890D01*
X30970155Y-125377000D01*
X29627000Y-125377000D01*
X29373000Y-125377000D01*
X28029845Y-125377000D01*
X27908524Y-125606890D01*
X25660000Y-125606890D01*
X25660000Y-117779620D01*
X25678411Y-117840312D01*
X25760589Y-117994058D01*
X25871183Y-118128817D01*
X25904956Y-118156534D01*
X28615001Y-120866580D01*
X28615001Y-121275224D01*
X28576746Y-121278992D01*
X28410150Y-121329528D01*
X28256614Y-121411595D01*
X28122038Y-121522038D01*
X28011595Y-121656614D01*
X27929528Y-121810150D01*
X27878992Y-121976746D01*
X27861928Y-122150000D01*
X27861928Y-123350000D01*
X27878992Y-123523254D01*
X27929528Y-123689850D01*
X28011595Y-123843386D01*
X28122038Y-123977962D01*
X28256614Y-124088405D01*
X28358593Y-124142914D01*
X28358205Y-124143198D01*
X28161336Y-124357954D01*
X28010146Y-124606991D01*
X27910446Y-124880739D01*
X27908524Y-124893110D01*
X28029845Y-125123000D01*
X29373000Y-125123000D01*
X29373000Y-125103000D01*
X29627000Y-125103000D01*
X29627000Y-125123000D01*
X30970155Y-125123000D01*
X31091476Y-124893110D01*
X31089554Y-124880739D01*
X30989854Y-124606991D01*
X30838664Y-124357954D01*
X30641795Y-124143198D01*
X30641407Y-124142914D01*
X30743386Y-124088405D01*
X30877962Y-123977962D01*
X30988405Y-123843386D01*
X31070472Y-123689850D01*
X31121008Y-123523254D01*
X31138072Y-123350000D01*
X31138072Y-122150000D01*
X31121008Y-121976746D01*
X31070472Y-121810150D01*
X30988405Y-121656614D01*
X30877962Y-121522038D01*
X30743386Y-121411595D01*
X30589850Y-121329528D01*
X30423254Y-121278992D01*
X30385000Y-121275224D01*
X30385000Y-120543469D01*
X30389281Y-120500000D01*
X30385000Y-120456531D01*
X30385000Y-120456523D01*
X30372195Y-120326510D01*
X30332455Y-120195506D01*
X30321589Y-120159686D01*
X30239411Y-120005941D01*
X30156532Y-119904953D01*
X30156530Y-119904951D01*
X30128817Y-119871183D01*
X30095049Y-119843470D01*
X27385000Y-117133422D01*
X27385000Y-114356890D01*
X27933524Y-114356890D01*
X28025648Y-114619858D01*
X28172504Y-114871193D01*
X28365571Y-115089049D01*
X28597430Y-115265053D01*
X28859170Y-115392442D01*
X29140733Y-115466320D01*
X29373000Y-115326165D01*
X29373000Y-114127000D01*
X29627000Y-114127000D01*
X29627000Y-115326165D01*
X29859267Y-115466320D01*
X30140830Y-115392442D01*
X30402570Y-115265053D01*
X30634429Y-115089049D01*
X30827496Y-114871193D01*
X30974352Y-114619858D01*
X31066476Y-114356890D01*
X30945155Y-114127000D01*
X29627000Y-114127000D01*
X29373000Y-114127000D01*
X28054845Y-114127000D01*
X27933524Y-114356890D01*
X27385000Y-114356890D01*
X27385000Y-108116578D01*
X28116579Y-107385000D01*
X28180241Y-107385000D01*
X28319866Y-107555134D01*
G37*
G04 #@! TD.AperFunction*
M02*
